<?xml version="1.0" encoding="UTF-8" standalone="no"?>

<!--Copyright (c) 2012 Zurich Instruments AG, www.zhinst.com-->

<svg xmlns="http://www.w3.org/2000/svg" version="1.1" width="256px" height="576px">
	<!--toggle-->
	<g transform="translate(0, 64)"><circle style="fill:none;stroke:#009EE0;stroke-width:3;" cx="32" cy="32" r="14"/></g>
	<g transform="translate(64, 64)"><g><circle style="fill:none;stroke:#172983;stroke-width:3;" cx="32" cy="32" r="14"/></g><g><circle style="fill:#172983;stroke:#172983;stroke-width:3;" cx="32" cy="32" r="8"/></g></g>
	<g transform="translate(128, 64)"><circle style="fill:none;stroke:#fff;stroke-width:3;" cx="32" cy="32" r="14"/></g>
	<g transform="translate(192, 64)"><g><circle style="fill:none;stroke:#fff;stroke-width:3;" cx="32" cy="32" r="14"/></g><g><circle style="fill:#fff;stroke:#fff;stroke-width:3;" cx="32" cy="32" r="8"/></g></g>
	<!--chain-->
	<g transform="translate(0, 128)"><g><path style="fill:none;stroke:#009EE0;stroke-width:3.2;" d="M25.6,40H13.781c-1.425,0-2.581-1.26-2.581-2.813V26.813 c0-1.553,1.156-2.813,2.581-2.813H25.6 M38.4,24h11.818c1.425,0,2.581,1.259,2.581,2.813v10.375   C52.8,38.74,51.644,40,50.219,40H38.4"/><path style="fill:none;stroke:#009EE0;stroke-width:3.2;" d="M35.2,44.8 L40.8,49.867 M23.734,50.4 L28.8,44.8 M35.2,19.2 L40.8,14.133 M23.734,13.6 L28.8,19.2"/></g></g>
	<g transform="translate(64, 128)"><g><path style="fill:none;stroke:#172983;stroke-width:3.2;" d="M29.6,40H17.781c-1.425,0-2.581-1.26-2.581-2.813V26.813 c0-1.553,1.156-2.813,2.581-2.813H29.6 M34.4,24h11.818c1.425,0,2.581,1.259,2.581,2.813v10.375    C48.8,38.74,47.644,40,46.219,40H34.4"/><rect style="fill:#172983;" x="22" y="29" width="20" height="6"/></g></g>
	<g transform="translate(128, 128)"><g><path style="fill:none;stroke:#fff;stroke-width:3.2;" d="M25.6,40H13.781c-1.425,0-2.581-1.26-2.581-2.813V26.813 c0-1.553,1.156-2.813,2.581-2.813H25.6 M38.4,24h11.818c1.425,0,2.581,1.259,2.581,2.813v10.375   C52.8,38.74,51.644,40,50.219,40H38.4"/><path style="fill:none;stroke:#fff;stroke-width:3.2;" d="M35.2,44.8 L40.8,49.867 M23.734,50.4 L28.8,44.8 M35.2,19.2 L40.8,14.133 M23.734,13.6 L28.8,19.2"/></g></g>
	<g transform="translate(192, 128)"><g><path style="fill:none;stroke:#fff;stroke-width:3.2;" d="M29.6,40H17.781c-1.425,0-2.581-1.26-2.581-2.813V26.813 c0-1.553,1.156-2.813,2.581-2.813H29.6 M34.4,24h11.818c1.425,0,2.581,1.259,2.581,2.813v10.375    C48.8,38.74,47.644,40,46.219,40H34.4"/><rect style="fill:#fff;" x="22" y="29" width="20" height="6"/></g></g>
    <!--zeroadjust-->
	<g transform="translate(0, 192)"><path style="fill:none;stroke:#009EE0;stroke-width:3;" d="M26,32 l-15,-13 v26 z"/><path style="fill:none;stroke:#009EE0;stroke-width:3;" d="M38,32 l15,-13 v26 z"/></g>
	<g transform="translate(64, 192)"><path style="fill:#172983;stroke:#172983;stroke-width:3;" d="M31,32 l-15,-13 v26 z"/><path style="fill:#172983;stroke:#172983;stroke-width:3;" d="M33,32 l15,-13 v26 z"/></g>
	<g transform="translate(128, 192)"><path style="fill:none;stroke:#fff;stroke-width:3;" d="M26,32 l-15,-13 v26 z"/><path style="fill:none;stroke:#fff;stroke-width:3;" d="M38,32 l15,-13 v26 z"/></g>
	<g transform="translate(192, 192)"><path style="fill:#fff;stroke:#fff;stroke-width:3;" d="M31,32 l-15,-13 v26 z"/><path style="fill:#fff;stroke:#fff;stroke-width:3;" d="M33,32 l15,-13 v26 z"/></g>
    <!--popup-->
	<g transform="translate(0, 256)"><polygon style="fill:#009EE0;" points="16,32 36,12 36,52"/></g>
	<g transform="translate(64, 256)"><polygon style="fill:#172983;" points="50,32 32,12 32,52"/></g>
	<g transform="translate(128, 256)"><polygon style="fill:#fff;" points="16,32 36,12 36,52"/></g>
	<g transform="translate(192, 256)"><polygon style="fill:#fff;" points="50,32 32,12 32,52"/></g>
    <!--autorange-->
	<g transform="translate(0, 320) rotate(90 32 32)"><path style="fill:none;stroke:#009EE0;stroke-width:3;" d="M26,32 l-15,-13 v26 z"/><path style="fill:none;stroke:#009EE0;stroke-width:3;" d="M38,32 l15,-13 v26 z"/></g>
	<g transform="translate(64, 320) rotate(90 32 32)"><path style="fill:#172983;stroke:#172983;stroke-width:3;" d="M31,32 l-15,-13 v26 z"/><path style="fill:#172983;stroke:#172983;stroke-width:3;" d="M33,32 l15,-13 v26 z"/></g>
	<g transform="translate(128, 320) rotate(90 32 32)"><path style="fill:none;stroke:#fff;stroke-width:3;" d="M26,32 l-15,-13 v26 z"/><path style="fill:none;stroke:#fff;stroke-width:3;" d="M38,32 l15,-13 v26 z"/></g>
	<g transform="translate(192, 320) rotate(90 32 32)"><path style="fill:#fff;stroke:#fff;stroke-width:3;" d="M31,32 l-15,-13 v26 z"/><path style="fill:#fff;stroke:#fff;stroke-width:3;" d="M33,32 l15,-13 v26 z"/></g>
    <!-- star -->
  <g transform="translate(0, 384)"><polygon id="polygon4600" fill="#fff" stroke="#fff" points="38.092,26.328 57,26.328 41.874,37.671 47.336,55.739 32,45.025 16.664,55.739 22.126,37.671 7,26.328 25.907,26.328 32,8.261 "/></g>
  <g transform="translate(64, 384)"><polygon id="polygon4600" fill="#fff" stroke="#fff" points="38.092,26.328 57,26.328 41.874,37.671 47.336,55.739 32,45.025 16.664,55.739 22.126,37.671 7,26.328 25.907,26.328 32,8.261 "/></g>
  <g transform="translate(128, 384)"><polygon id="polygon4600" fill="#ddd" fill-opacity="0.5"  stroke="#bbb" stroke-width="2" points="38.092,26.328 57,26.328 41.874,37.671 47.336,55.739 32,45.025 16.664,55.739 22.126,37.671 7,26.328 25.907,26.328 32,8.261 "/></g>
  <g transform="translate(192, 384)"><polygon id="polygon4600" fill="#FDCA00" stroke="#ECBD01" stroke-width="2" points="38.092,26.328 57,26.328 41.874,37.671 47.336,55.739 32,45.025 16.664,55.739 22.126,37.671 7,26.328 25.907,26.328 32,8.261 "/></g>
    <!-- fullscreen -->
  <g transform="translate(0, 448)"><path id="path3761" fill="none" stroke="#009EE0" stroke-width="3" d="M7.5,26.76V7.5h19.26"/><path id="path3774" fill="none" stroke="#009EE0" stroke-width="3" d="M56.5,26.76V7.5H37.24"/><path id="path3776" fill="none" stroke="#009EE0" stroke-width="3" d="M56.5,37.24V56.5H37.24"/><path id="path3778" fill="none" stroke="#009EE0" stroke-width="3" d="M7.5,37.24V56.5h19.26"/></g>
  <g transform="translate(64, 448)"><path id="path3761" fill="none" stroke="#172983" stroke-width="3" d="M7.5,26.76V7.5h19.26"/><path id="path3774" fill="none" stroke="#172983" stroke-width="3" d="M56.5,26.76V7.5H37.24"/><path id="path3776" fill="none" stroke="#172983" stroke-width="3" d="M56.5,37.24V56.5H37.24"/><path id="path3778" fill="none" stroke="#172983" stroke-width="3" d="M7.5,37.24V56.5h19.26"/></g>
  <g transform="translate(128, 448)"><path id="path3761" fill="none" stroke="#FFFFFF" stroke-width="3" d="M7.5,26.76V7.5h19.26"/><path id="path3774" fill="none" stroke="#FFFFFF" stroke-width="3" d="M56.5,26.76V7.5H37.24"/><path id="path3776" fill="none" stroke="#FFFFFF" stroke-width="3" d="M56.5,37.24V56.5H37.24"/><path id="path3778" fill="none" stroke="#FFFFFF" stroke-width="3" d="M7.5,37.24V56.5h19.26"/></g>
  <g transform="translate(192, 448)"><path id="path3761" fill="none" stroke="#FFFFFF" stroke-width="3" d="M7.5,26.76V7.5h19.26"/><path id="path3774" fill="none" stroke="#FFFFFF" stroke-width="3" d="M56.5,26.76V7.5H37.24"/><path id="path3776" fill="none" stroke="#FFFFFF" stroke-width="3" d="M56.5,37.24V56.5H37.24"/><path id="path3778" fill="none" stroke="#FFFFFF" stroke-width="3" d="M7.5,37.24V56.5h19.26"/></g>
    <!--node tree-->
	<g transform="translate(0, 512)"><rect x="14.345" y="5.486" stroke="#009EE0" fill="#009EE0" width="14.155" height="14.155"/><rect x="35.5" y="24.921" stroke="#009EE0" fill="#009EE0" width="14.155" height="14.156"/><rect x="35.5" y="44.356" stroke="#009EE0" fill="#009EE0" width="14.155" height="14.157"/><path fill="none" stroke="#1B9DD9" d="M22.423,48.898"/><polyline fill="none" stroke="#009EE0" stroke-width="2" points="21.793,14.857 21.793,51.362 38.295,51.362"/><line fill="none" stroke="#009EE0" stroke-width="2" x1="40.745" y1="31.999" x2="22.255" y2="31.999"/></g>
	<g transform="translate(64, 512)"><rect x="14.345" y="5.486" stroke="#172983" fill="#172983" width="14.155" height="14.155"/><rect x="35.5" y="24.921" stroke="#172983" fill="#172983" width="14.155" height="14.156"/><rect x="35.5" y="44.356" stroke="#172983" fill="#172983" width="14.155" height="14.157"/><path fill="none" stroke="#1B9DD9" d="M22.423,48.898"/><polyline fill="none" stroke="#172983" stroke-width="2" points="21.793,14.857 21.793,51.362 38.295,51.362"/><line fill="none" stroke="#172983" stroke-width="2" x1="40.745" y1="31.999" x2="22.255" y2="31.999"/></g>
	<g transform="translate(128, 512)"><rect x="14.345" y="5.486" stroke="#fff" fill="#fff" width="14.155" height="14.155"/><rect x="35.5" y="24.921" stroke="#fff" fill="#fff" width="14.155" height="14.156"/><rect x="35.5" y="44.356" stroke="#fff" fill="#fff" width="14.155" height="14.157"/><path fill="none" stroke="#1B9DD9" d="M22.423,48.898"/><polyline fill="none" stroke="#fff" stroke-width="2" points="21.793,14.857 21.793,51.362 38.295,51.362"/><line fill="none" stroke="#fff" stroke-width="2" x1="40.745" y1="31.999" x2="22.255" y2="31.999"/></g>
	<g transform="translate(192, 512)"><rect x="14.345" y="5.486" stroke="#fff" fill="#fff" width="14.155" height="14.155"/><rect x="35.5" y="24.921" stroke="#fff" fill="#fff" width="14.155" height="14.156"/><rect x="35.5" y="44.356" stroke="#fff" fill="#fff" width="14.155" height="14.157"/><path fill="none" stroke="#1B9DD9" d="M22.423,48.898"/><polyline fill="none" stroke="#fff" stroke-width="2" points="21.793,14.857 21.793,51.362 38.295,51.362"/><line fill="none" stroke="#fff" stroke-width="2" x1="40.745" y1="31.999" x2="22.255" y2="31.999"/></g>
	--&gt;
        
</svg>