<?xml version="1.0" encoding="UTF-8" standalone="no"?>

<!--generated document-->
<!--Copyright (c) 2012 Zurich Instruments AG, www.zhinst.com-->

<svg xmlns="http://www.w3.org/2000/svg" version="1.1" width="64px" height="64px"><g><path style="fill:#172983" d="m 58,35.1655 c -2.3721,0.19145 -3.5566,1.00065 -3.5566,2.425938 v 4.979975 c 0,1.8312 -0.417,3.19235 -1.25,4.087912 C 52.3594,47.553138 50.9454,48 48.9502,48 H 48 v -2.0132 h 0.915 c 2.0654,0 3.0986,-1.1809 3.0986,-3.543575 V 37.30435 c 0,-0.87325 0.3047,-1.602212 0.916,-2.188375 0.6094,-0.5845 1.4082,-0.9835 2.3936,-1.1963 v -0.06405 C 53.1171,33.472813 52.0136,32.3235 52.0136,30.408563 v -5.1415 c 0,-1.148438 -0.2109,-1.978988 -0.6328,-2.489988 -0.4238,-0.511 -1.2334,-0.765625 -2.4307,-0.765625 h -0.915 V 20 h 0.915 c 2.0889,0 3.5264,0.43155 4.3135,1.292813 0.7871,0.862225 1.1797,2.25155 1.1797,4.167362 V 30.3761 c 0,0.723713 0.3701,1.292813 1.1094,1.708088 0.7393,0.415275 1.5547,0.675062 2.4473,0.7819 V 35.1655 l 0,0 z"/><path style="fill:#172983" d="M 6,32.866087 C 6.8921,32.75925 7.708,32.49955 8.4473,32.0834 9.1866,31.669 9.5562,31.0999 9.5562,30.375312 v -4.91505 c 0,-1.915812 0.3936,-3.305137 1.1797,-4.168237 C 11.52305,20.430675 12.96055,20 15.04995,20 h 0.915 v 2.01145 h -0.915 c -1.1968,0 -2.0068,0.254625 -2.4302,0.765625 -0.4224,0.511 -0.6333,1.34155 -0.6333,2.489988 v 5.1415 c 0,1.914937 -1.103,3.06425 -3.3096,3.447062 v 0.06405 c 0.9854,0.2128 1.7842,0.6118 2.3936,1.1963 0.6113,0.586162 0.916,1.315037 0.916,2.188375 v 5.138875 c 0,2.362675 1.0332,3.543575 3.0986,3.543575 h 0.915 V 48 h -0.9502 c -1.9956,0 -3.4092,-0.446863 -4.2432,-1.340675 -0.833,-0.895475 -1.2505,-2.256712 -1.2505,-4.087913 v -4.979975 c 0,-1.425287 -1.1841,-2.234487 -3.5562,-2.425937 v -2.299413 l 10e-5,0 z"/><circle style="fill:none;stroke:#172983;stroke-width:2" cx="32" cy="34" r="14"/><polyline style="fill:none;stroke:#172983;stroke-width:3" points="22.5,28.5 32,34 39.2,32"/></g>
        --&gt;
        
      </svg>
