<?xml version="1.0" encoding="UTF-8" standalone="no"?>

<!--generated document-->
<!--Copyright (c) 2012 Zurich Instruments AG, www.zhinst.com-->

<svg xmlns="http://www.w3.org/2000/svg" version="1.1" width="64px" height="64px"><g><path style="stroke:#009ee0;fill:#009ee0;stroke-linejoin:round;" d="M4,32.0835V22.917l1.8667,1.833 v5.5L4,32.0835z"/><path style="stroke:#009ee0;fill:#009ee0;stroke-linejoin:round;" d="M4.9331,22h9.3335 l-1.8667,1.8335H6.7998L4.9331,22z"/><path style="stroke:#009ee0;fill:#009ee0;stroke-linejoin:round;" d="M15.2002,32.0835V22.917 l-1.8667,1.833v5.5L15.2002,32.0835z"/><path style="stroke:#009ee0;fill:#009ee0;stroke-linejoin:round;" d="M4,43.083v-9.166l1.8667,1.833 v5.5L4,43.083z"/><path style="stroke:#009ee0;fill:#009ee0;stroke-linejoin:round;" d="M15.2002,43.083v-9.166 l-1.8667,1.833v5.5L15.2002,43.083z"/><path style="stroke:#009ee0;fill:#009ee0;stroke-linejoin:round;" d="M4.9331,44h9.3335 l-1.8667-1.834H6.7998L4.9331,44z"/><path style="stroke:#009ee0;fill:#009ee0;stroke-linejoin:round;" d="M17.0669,42.166V44h1.8662v-1.834H17.0669z"/><path style="stroke:#009ee0;fill:#009ee0;stroke-linejoin:round;" d="M20.7998,32.0835V22.917 l1.8667,1.833v5.5L20.7998,32.0835z"/><path style="stroke:#009ee0;fill:#009ee0;stroke-linejoin:round;" d="M21.7334,22h9.3335 l-1.8667,1.8335h-5.6001L21.7334,22z"/><path style="stroke:#009ee0;fill:#009ee0;stroke-linejoin:round;" d="M32,32.0835V22.917 l-1.8667,1.833v5.5L32,32.0835z"/><path style="stroke:#009ee0;fill:#009ee0;stroke-linejoin:round;" d="M20.7998,43.083v-9.166 l1.8667,1.833v5.5L20.7998,43.083z"/><path style="stroke:#009ee0;fill:#009ee0;stroke-linejoin:round;" d="M32,43.083v-9.166 l-1.8667,1.833v5.5L32,43.083z"/><path style="stroke:#009ee0;fill:#009ee0;stroke-linejoin:round;" d="M21.7334,44h9.3335 l-1.8667-1.834h-5.6001L21.7334,44z"/><path style="stroke:#009ee0;fill:#009ee0;stroke-linejoin:round;" d="M34.7998,32.0835V22.917 l1.8672,1.833v5.5L34.7998,32.0835z"/><path style="stroke:#009ee0;fill:#009ee0;stroke-linejoin:round;" d="M35.7334,22h9.333 l-1.8662,1.8335h-5.6006L35.7334,22z"/><path style="stroke:#009ee0;fill:#009ee0;stroke-linejoin:round;" d="M46,43.083v-9.166 l-1.8662,1.833v5.5L46,43.083z"/><path style="stroke:#009ee0;fill:#009ee0;stroke-linejoin:round;" d="M35.7334,44h9.333 l-1.8662-1.834h-5.6006L35.7334,44z"/><path style="stroke:#009ee0;fill:#009ee0;stroke-linejoin:round;" d="M35.7334,33l0.9336,0.917h7.4668L45.0664,33l-0.9326-0.9165H36.667L35.7334,33z"/><path style="stroke:#009ee0;fill:#009ee0;stroke-linejoin:round;" d="M48.7998,32.0835V22.917 l1.8672,1.833v5.5L48.7998,32.0835z"/><path style="stroke:#009ee0;fill:#009ee0;stroke-linejoin:round;" d="M49.7334,22h9.333 l-1.8662,1.8335h-5.6006L49.7334,22z"/><path style="stroke:#009ee0;fill:#009ee0;stroke-linejoin:round;" d="M60,32.0835V22.917 l-1.8662,1.833v5.5L60,32.0835z"/><path style="stroke:#009ee0;fill:#009ee0;stroke-linejoin:round;" d="M48.7998,43.083v-9.166 l1.8672,1.833v5.5L48.7998,43.083z"/><path style="stroke:#009ee0;fill:#009ee0;stroke-linejoin:round;" d="M60,43.083v-9.166 l-1.8662,1.833v5.5L60,43.083z"/><path style="stroke:#009ee0;fill:#009ee0;stroke-linejoin:round;" d="M49.7334,44h9.333 l-1.8662-1.834h-5.6006L49.7334,44z"/><path style="stroke:#009ee0;fill:#009ee0;stroke-linejoin:round;" d="M49.7334,33l0.9336,0.917h7.4668L59.0664,33l-0.9326-0.9165H50.667L49.7334,33z"/></g>
        --&gt;
        
      </svg>
