<?xml version="1.0" encoding="UTF-8" standalone="no"?>

<!--generated document-->
<!--Copyright (c) 2012 Zurich Instruments AG, www.zhinst.com-->

<svg xmlns="http://www.w3.org/2000/svg" version="1.1" width="64px" height="64px" color-rendering="optimizeQuality" shape-rendering="geometricPrecision"><g><path style="fill:none;stroke:#ffffff;stroke-width:2;" stroke-linecap="square" stroke-linejoin="round" stroke-miterlimit="10" d="M-1,30.128c2.027-1.233,2.552-0.783,3.487-0.163c0.935,0.623,1.3,1.405,2.681-0.471c1.381-1.875,2.041-1.335,2.898,0.771 c0.859,2.108,1.737,3.417,3.01-1.243c1.272-4.662,1.664-4.499,3.215,1.824c1.552,6.325,1.755,7.735,3.436-2.545 s1.759-11.279,3.642,2.515c1.885,13.796,1.72,19.312,4.179-3.037c2.457-22.349,2.615-18.222,4.493,2.607 c1.879,20.83,2.082,31.587,5.441-1.515c3.008-29.605,3.738-19.647,6.308-2.306s3.426,24.23,8.591,8.943 c5.162-15.287,8.695-7.47,14.619-6.618"/></g>
        --&gt;
        
      </svg>
