<?xml version="1.0" encoding="UTF-8" standalone="no"?>

<!--generated document-->
<!--Copyright (c) 2012 Zurich Instruments AG, www.zhinst.com-->

<svg xmlns="http://www.w3.org/2000/svg" version="1.1" width="64px" height="64px"><g><path style="fill:none;stroke:#172983;stroke-width:2" stroke-miterlimit="100" d="M8.2002,41.9072l1.3872-0.7422l1.2485,0.417  l1.3877-0.417l1.1099,0.417l1.3872-0.5098l1.249,0.3711l0.6934-0.834l1.1099,0.5557l0.6938-1.4375c0,0,0.8325,0.3711,1.1099,0.5566  c0.2778,0.1855,2.0811-0.4639,2.0811-0.4639l0.9712,0.5098l1.1104-1.2979l1.3872,0.6953l1.9424-1.4834l1.665,1.0195l0.6934-0.7881  c1.5103,0,2.3228-16.1631,2.3228-16.1631s1.5625,15.6064,2.6953,15.6064l1.1104,0.9736l0.416-0.3711l1.249,0.7891l0.6934-0.9746  l0.2773,0.7422l1.1104-0.2314l0.416,0.9268l0.9717-0.3701l0.416,0.6025l0.9707-0.1387l0.9707,0.4629l0.833-0.2314  c0.7627,0.2314,0.9854-2.7236,0.9854-2.7236s0.5664,2.8828,0.8184,2.6309h1.248l0.417,0.2324l0.6943,0.0459l0.5547,0.3711  l0.6934-0.3252l1.5254,0.5107l1.1113-0.3252l1.6641,0.7891l0.9707-0.418l1.1104,0.4639l0.1396-0.0459"/></g><g><line x1="39.69" y1="42.13" x2="35.89" y2="45.95" style="fill:none;stroke:#172983;stroke-width:1.5"/><line x2="31.12" y2="50.71" x1="36.84" y1="44.99" style="fill:none;stroke:#172983;stroke-width:3"/><circle style="fill:none;stroke:#172983;stroke-width:2;" cx="45" cy="37" r="8"/></g>
        --&gt;
        
      </svg>
