<?xml version="1.0" encoding="UTF-8" standalone="no"?>

<!--generated document-->
<!--Copyright (c) 2012 Zurich Instruments AG, www.zhinst.com-->

<svg xmlns="http://www.w3.org/2000/svg" version="1.1" width="64px" height="64px"><g><path style="fill:none;stroke:#009ee0;stroke-width:2px;" d="M4,20 l0,28 56,0"/><path style="fill:none;stroke:#009ee0;stroke-width:1px;" d="M4,16 m0,8 l4,0 m-4,8 l4,0 m-4,8 l4,0"/><path style="fill:none;stroke:#009ee0;stroke-width:1px;" d="M4,48 m8,0 l0,-4 m8,4 l0,-4 m8,4 l0,-4 m8,4 l0,-4 m8,4 l0,-4 m8,4 l0,-4"/><path style="fill:none;stroke:#009ee0;stroke-width:2;" d="M4,36 q4.5,-16 9,0 t9,0 9,0 9,0 9,0 9,0"/></g>
        --&gt;
        
      </svg>
