<?xml version="1.0" encoding="UTF-8" standalone="no"?>

<!--generated document-->
<!--Copyright (c) 2012 Zurich Instruments AG, www.zhinst.com-->

<svg xmlns="http://www.w3.org/2000/svg" version="1.1" width="64px" height="1792">
	<!--settings-->
	<g transform="translate(0,0)"><path style="fill:none;stroke:#fff;stroke-width:2" d="M32.6846,35.7383    c0.042-0.4365,0.0674-0.875,0.0693-1.3252c-0.001-0.4473-0.0273-0.8936-0.0693-1.3281l-4.1431-0.7656    c-0.2451-1.082-0.6729-2.0938-1.2529-3.0039l2.3955-3.4771c-0.562-0.686-1.1924-1.3169-1.8799-1.8799l-3.4746,2.3955    c-0.9106-0.5796-1.9243-1.0068-3.0073-1.2495l-0.7637-4.1479c-0.4375-0.042-0.8818-0.0674-1.3276-0.0664    c-0.4517-0.001-0.8911,0.0249-1.3286,0.0649l-0.7632,4.1499c-1.0859,0.2422-2.0986,0.6694-3.0068,1.2456l-3.4751-2.3916    c-0.687,0.5625-1.3169,1.1929-1.8809,1.8784l2.3955,3.4751c-0.5796,0.9111-1.0049,1.9229-1.2495,3.0068L5.7749,33.083    c-0.041,0.4385-0.0664,0.8818-0.0664,1.3311c0,0.4473,0.0254,0.8887,0.0664,1.3271l4.1479,0.7646    c0.2432,1.083,0.6704,2.0967,1.249,3.0039l-2.3945,3.4775c0.5635,0.6836,1.1924,1.3145,1.8799,1.8779l3.4746-2.3945    c0.9077,0.5762,1.9229,1.0068,3.0063,1.248l0.7642,4.1484c0.438,0.043,0.8818,0.0693,1.3281,0.0684    c0.4473-0.001,0.8906-0.0273,1.3281-0.0703l0.7642-4.1455c1.0825-0.2441,2.0952-0.6738,3.0059-1.25l3.4761,2.3955    c0.6826-0.5625,1.3164-1.1924,1.877-1.877l-2.3926-3.4775c0.5796-0.9072,1.0078-1.9209,1.251-3.0059L32.6846,35.7383z     M19.2305,39.1846c-2.6348,0.002-4.77-2.1377-4.771-4.7744c0-2.6318,2.1382-4.7705,4.771-4.7705    c2.6372,0.0005,4.7715,2.1377,4.771,4.7695C24.0015,37.0469,21.8677,39.1846,19.2305,39.1846z"/><path style="fill:none;stroke:#fff;stroke-width:2" d="M57.291,20.0796    c-0.127-0.4204-0.2715-0.834-0.4414-1.251c-0.1738-0.4126-0.3672-0.814-0.5723-1.2002l-4.1211,0.8779    c-0.6406-0.9063-1.4238-1.6772-2.3086-2.2949l0.8828-4.1294c-0.7813-0.4194-1.6055-0.7607-2.4551-1.0171l-2.2949,3.5425    c-1.0625-0.1875-2.1621-0.1938-3.2559-0.0029l-2.293-3.5405c-0.4199,0.1284-0.8398,0.2749-1.25,0.4463    c-0.418,0.1724-0.8145,0.3638-1.2031,0.5679l0.8809,4.127c-0.9082,0.6392-1.6816,1.4209-2.3008,2.3022l-4.125-0.8809    c-0.4189,0.7822-0.7603,1.6064-1.0195,2.4561l3.543,2.293c-0.1855,1.0635-0.1934,2.1621-0.0039,3.2573l-3.5381,2.2915    c0.1289,0.4209,0.2754,0.8413,0.4468,1.2554c0.1714,0.4131,0.3638,0.811,0.5693,1.2002l4.1255-0.8794    c0.6387,0.9067,1.4219,1.6802,2.3027,2.2964l-0.8809,4.1289c0.7832,0.416,1.6055,0.7578,2.4551,1.0156l2.2949-3.542    c1.0586,0.1846,2.1602,0.1943,3.2539,0.0029l2.2949,3.54c0.4199-0.1279,0.8398-0.2734,1.252-0.4453    c0.4121-0.1709,0.8125-0.3662,1.2012-0.5732l-0.8809-4.1211c0.9063-0.6416,1.6777-1.4258,2.2988-2.3062l4.127,0.8823    c0.416-0.7808,0.7598-1.6045,1.0156-2.4521l-3.541-2.2974c0.1895-1.0586,0.1953-2.1597,0.0059-3.2554L57.291,20.0796z     M46.1797,28.4126c-2.4316,1.0098-5.2246-0.1499-6.2344-2.5859c-1.0078-2.4312,0.1504-5.2251,2.582-6.2314    c2.4375-1.0098,5.2266,0.1475,6.2324,2.5796C49.7715,24.6113,48.6172,27.4033,46.1797,28.4126z"/></g>
	<!--device-->
	<g transform="translate(0,64)"><rect x="8" y="24" width="48" height="16" style="fill:none;stroke:#fff;stroke-width:2"/><circle cx="16" cy="34" r="1" style="fill:none;stroke:#fff;stroke-width:2"/><circle cx="22" cy="34" r="1" style="fill:none;stroke:#fff;stroke-width:2"/><circle cx="30" cy="34" r="1" style="fill:none;stroke:#fff;stroke-width:2"/><circle cx="36" cy="34" r="1" style="fill:none;stroke:#fff;stroke-width:2"/></g>
	<!--lockin-->
	<g transform="translate(0,127)"><circle cx="16" cy="32" r="11" style="fill:none;stroke:#fff;stroke-width:2"/><line style="fill:none;stroke:#fff;stroke-width:2" x1="8.2218256" y1="39.778175" x2="23.778175" y2="24.221827"/><line style="fill:none;stroke:#fff;stroke-width:2" x1="8.2218256" y1="24.221827" x2="23.778175" y2="39.778175"/><rect x="33" y="22" width="26" height="20" style="fill:none;stroke:#fff;stroke-width:2"/><polyline points="36,29 49,29 55,37" style="fill:none;stroke:#fff;stroke-width:3"/></g>
	<!--pll-->
	<g transform="translate(0, 188)"><path style="fill:none;stroke:#fff;stroke-width:2;" d="M36,32 q2.5,-6 6,0 t6,0"/><circle style="fill:none;stroke:#fff;stroke-width:2;" cx="42" cy="32" r="10"/><rect style="fill:none;stroke:#fff;stroke-width:2;" x="6" y="22" width="20" height="20"/><polyline style="fill:none;stroke:#fff;stroke-width:2;" points="52,32 58,32 58,48 16,48 16,42"/><line style="fill:none;stroke:#fff;stroke-width:2;" x1="26" y1="32" x2="32" y2="32"/></g>
	<!--pid-->
	<g transform="translate(0, 252)"><rect style="fill:none;stroke:#fff;stroke-width:2;" x="24" y="14" width="16" height="24"/><line style="fill:none;stroke:#fff;stroke-width:2;" x1="24" y1="22" x2="40" y2="22"/><line style="fill:none;stroke:#fff;stroke-width:2;" x1="24" y1="30" x2="40" y2="30"/><polyline style="fill:none;stroke:#fff;stroke-width:2;" points="40,26 52,26 52,46 12,46 12,26 24,26"/></g>
	<!--mod-->
	<g transform="translate(0, 320)"><path style="fill:none;stroke:#fff;stroke-width:2" d="M4,34 c0,0,12,0,14,0 s2,-11,2,-11 s0,11,2,11 s5,0,8,0 s3,-25,3,-25 s0,25,3,25 s6,0,8,0 s2,11,2,11 s0,-11,2,-11 s12,0,12,0"/></g>
	<!--rt-->
	<g transform="translate(0, 380)"><path style="fill:#fff" d="m 58,35.1655 c -2.3721,0.19145 -3.5566,1.00065 -3.5566,2.425938 v 4.979975 c 0,1.8312 -0.417,3.19235 -1.25,4.087912 C 52.3594,47.553138 50.9454,48 48.9502,48 H 48 v -2.0132 h 0.915 c 2.0654,0 3.0986,-1.1809 3.0986,-3.543575 V 37.30435 c 0,-0.87325 0.3047,-1.602212 0.916,-2.188375 0.6094,-0.5845 1.4082,-0.9835 2.3936,-1.1963 v -0.06405 C 53.1171,33.472813 52.0136,32.3235 52.0136,30.408563 v -5.1415 c 0,-1.148438 -0.2109,-1.978988 -0.6328,-2.489988 -0.4238,-0.511 -1.2334,-0.765625 -2.4307,-0.765625 h -0.915 V 20 h 0.915 c 2.0889,0 3.5264,0.43155 4.3135,1.292813 0.7871,0.862225 1.1797,2.25155 1.1797,4.167362 V 30.3761 c 0,0.723713 0.3701,1.292813 1.1094,1.708088 0.7393,0.415275 1.5547,0.675062 2.4473,0.7819 V 35.1655 l 0,0 z"/><path style="fill:#fff" d="M 6,32.866087 C 6.8921,32.75925 7.708,32.49955 8.4473,32.0834 9.1866,31.669 9.5562,31.0999 9.5562,30.375312 v -4.91505 c 0,-1.915812 0.3936,-3.305137 1.1797,-4.168237 C 11.52305,20.430675 12.96055,20 15.04995,20 h 0.915 v 2.01145 h -0.915 c -1.1968,0 -2.0068,0.254625 -2.4302,0.765625 -0.4224,0.511 -0.6333,1.34155 -0.6333,2.489988 v 5.1415 c 0,1.914937 -1.103,3.06425 -3.3096,3.447062 v 0.06405 c 0.9854,0.2128 1.7842,0.6118 2.3936,1.1963 0.6113,0.586162 0.916,1.315037 0.916,2.188375 v 5.138875 c 0,2.362675 1.0332,3.543575 3.0986,3.543575 h 0.915 V 48 h -0.9502 c -1.9956,0 -3.4092,-0.446863 -4.2432,-1.340675 -0.833,-0.895475 -1.2505,-2.256712 -1.2505,-4.087913 v -4.979975 c 0,-1.425287 -1.1841,-2.234487 -3.5562,-2.425937 v -2.299413 l 10e-5,0 z"/><circle style="fill:none;stroke:#fff;stroke-width:2" cx="32" cy="34" r="14"/><polyline style="fill:none;stroke:#fff;stroke-width:3" points="22.5,28.5 32,34 39.2,32"/></g>
	<!--num-->
	<g transform="translate(0, 444)"><path style="stroke:#fff;fill:#fff;stroke-linejoin:round;" d="M4,32.0835V22.917l1.8667,1.833 v5.5L4,32.0835z"/><path style="stroke:#fff;fill:#fff;stroke-linejoin:round;" d="M4.9331,22h9.3335 l-1.8667,1.8335H6.7998L4.9331,22z"/><path style="stroke:#fff;fill:#fff;stroke-linejoin:round;" d="M15.2002,32.0835V22.917 l-1.8667,1.833v5.5L15.2002,32.0835z"/><path style="stroke:#fff;fill:#fff;stroke-linejoin:round;" d="M4,43.083v-9.166l1.8667,1.833 v5.5L4,43.083z"/><path style="stroke:#fff;fill:#fff;stroke-linejoin:round;" d="M15.2002,43.083v-9.166 l-1.8667,1.833v5.5L15.2002,43.083z"/><path style="stroke:#fff;fill:#fff;stroke-linejoin:round;" d="M4.9331,44h9.3335 l-1.8667-1.834H6.7998L4.9331,44z"/><path style="stroke:#fff;fill:#fff;stroke-linejoin:round;" d="M17.0669,42.166V44h1.8662v-1.834H17.0669z"/><path style="stroke:#fff;fill:#fff;stroke-linejoin:round;" d="M20.7998,32.0835V22.917 l1.8667,1.833v5.5L20.7998,32.0835z"/><path style="stroke:#fff;fill:#fff;stroke-linejoin:round;" d="M21.7334,22h9.3335 l-1.8667,1.8335h-5.6001L21.7334,22z"/><path style="stroke:#fff;fill:#fff;stroke-linejoin:round;" d="M32,32.0835V22.917 l-1.8667,1.833v5.5L32,32.0835z"/><path style="stroke:#fff;fill:#fff;stroke-linejoin:round;" d="M20.7998,43.083v-9.166 l1.8667,1.833v5.5L20.7998,43.083z"/><path style="stroke:#fff;fill:#fff;stroke-linejoin:round;" d="M32,43.083v-9.166 l-1.8667,1.833v5.5L32,43.083z"/><path style="stroke:#fff;fill:#fff;stroke-linejoin:round;" d="M21.7334,44h9.3335 l-1.8667-1.834h-5.6001L21.7334,44z"/><path style="stroke:#fff;fill:#fff;stroke-linejoin:round;" d="M34.7998,32.0835V22.917 l1.8672,1.833v5.5L34.7998,32.0835z"/><path style="stroke:#fff;fill:#fff;stroke-linejoin:round;" d="M35.7334,22h9.333 l-1.8662,1.8335h-5.6006L35.7334,22z"/><path style="stroke:#fff;fill:#fff;stroke-linejoin:round;" d="M46,43.083v-9.166 l-1.8662,1.833v5.5L46,43.083z"/><path style="stroke:#fff;fill:#fff;stroke-linejoin:round;" d="M35.7334,44h9.333 l-1.8662-1.834h-5.6006L35.7334,44z"/><path style="stroke:#fff;fill:#fff;stroke-linejoin:round;" d="M35.7334,33l0.9336,0.917h7.4668L45.0664,33l-0.9326-0.9165H36.667L35.7334,33z"/><path style="stroke:#fff;fill:#fff;stroke-linejoin:round;" d="M48.7998,32.0835V22.917 l1.8672,1.833v5.5L48.7998,32.0835z"/><path style="stroke:#fff;fill:#fff;stroke-linejoin:round;" d="M49.7334,22h9.333 l-1.8662,1.8335h-5.6006L49.7334,22z"/><path style="stroke:#fff;fill:#fff;stroke-linejoin:round;" d="M60,32.0835V22.917 l-1.8662,1.833v5.5L60,32.0835z"/><path style="stroke:#fff;fill:#fff;stroke-linejoin:round;" d="M48.7998,43.083v-9.166 l1.8672,1.833v5.5L48.7998,43.083z"/><path style="stroke:#fff;fill:#fff;stroke-linejoin:round;" d="M60,43.083v-9.166 l-1.8662,1.833v5.5L60,43.083z"/><path style="stroke:#fff;fill:#fff;stroke-linejoin:round;" d="M49.7334,44h9.333 l-1.8662-1.834h-5.6006L49.7334,44z"/><path style="stroke:#fff;fill:#fff;stroke-linejoin:round;" d="M49.7334,33l0.9336,0.917h7.4668L59.0664,33l-0.9326-0.9165H50.667L49.7334,33z"/></g>
	<!--plot-->
	<g transform="translate(0, 508)"><line style="fill:none;stroke:#fff;stroke-width:2" x1="0" x2="64" y1="21" y2="21"/><line style="fill:none;stroke:#fff;stroke-width:2" x1="0" x2="64" y1="48" y2="48"/><rect style="fill:#fff;" x="02" y="22" width="4" height="4"/><rect style="fill:#fff;" x="12" y="22" width="4" height="4"/><rect style="fill:#fff;" x="22" y="22" width="4" height="4"/><rect style="fill:#fff;" x="32" y="22" width="4" height="4"/><rect style="fill:#fff;" x="42" y="22" width="4" height="4"/><rect style="fill:#fff;" x="52" y="22" width="4" height="4"/><rect style="fill:#fff;" x="62" y="22" width="2" height="4"/><rect style="fill:#fff;" x="02" y="43" width="4" height="4"/><rect style="fill:#fff;" x="12" y="43" width="4" height="4"/><rect style="fill:#fff;" x="22" y="43" width="4" height="4"/><rect style="fill:#fff;" x="32" y="43" width="4" height="4"/><rect style="fill:#fff;" x="42" y="43" width="4" height="4"/><rect style="fill:#fff;" x="52" y="43" width="4" height="4"/><rect style="fill:#fff;" x="62" y="43" width="2" height="4"/><path style="fill:none;stroke:#fff;stroke-width:2" d="M0,28 h12  v12 h-12"/><path style="fill:none;stroke:#fff;stroke-width:2" d="M18,28 h16 v12 h-16z"/><path style="fill:none;stroke:#fff;stroke-width:2" d="M40,28 h16 v12 h-16z"/><path style="fill:none;stroke:#fff;stroke-width:2" d="M64,28 h-2 v12 h2"/></g>
	<!--scope-->
	<g transform="translate(0, 572)"><path style="fill:none;stroke:#fff;stroke-width:2px;" d="M4,20 l0,28 56,0"/><path style="fill:none;stroke:#fff;stroke-width:1px;" d="M4,16 m0,8 l4,0 m-4,8 l4,0 m-4,8 l4,0"/><path style="fill:none;stroke:#fff;stroke-width:1px;" d="M4,48 m8,0 l0,-4 m8,4 l0,-4 m8,4 l0,-4 m8,4 l0,-4 m8,4 l0,-4 m8,4 l0,-4"/><path style="fill:none;stroke:#fff;stroke-width:2;" d="M4,36 q4.5,-16 9,0 t9,0 9,0 9,0 9,0 9,0"/></g>
	<!--fft-->
	<g transform="translate(0, 640)"><path style="fill:none;stroke:#fff;stroke-width:2" stroke-miterlimit="100" d="M8.2002,41.9072l1.3872-0.7422l1.2485,0.417  l1.3877-0.417l1.1099,0.417l1.3872-0.5098l1.249,0.3711l0.6934-0.834l1.1099,0.5557l0.6938-1.4375c0,0,0.8325,0.3711,1.1099,0.5566  c0.2778,0.1855,2.0811-0.4639,2.0811-0.4639l0.9712,0.5098l1.1104-1.2979l1.3872,0.6953l1.9424-1.4834l1.665,1.0195l0.6934-0.7881  c1.5103,0,2.3228-16.1631,2.3228-16.1631s1.5625,15.6064,2.6953,15.6064l1.1104,0.9736l0.416-0.3711l1.249,0.7891l0.6934-0.9746  l0.2773,0.7422l1.1104-0.2314l0.416,0.9268l0.9717-0.3701l0.416,0.6025l0.9707-0.1387l0.9707,0.4629l0.833-0.2314  c0.7627,0.2314,0.9854-2.7236,0.9854-2.7236s0.5664,2.8828,0.8184,2.6309h1.248l0.417,0.2324l0.6943,0.0459l0.5547,0.3711  l0.6934-0.3252l1.5254,0.5107l1.1113-0.3252l1.6641,0.7891l0.9707-0.418l1.1104,0.4639l0.1396-0.0459"/></g>
	<!--zoomfft-->
	<g transform="translate(0, 702)"><g><path style="fill:none;stroke:#fff;stroke-width:2" stroke-miterlimit="100" d="M8.2002,41.9072l1.3872-0.7422l1.2485,0.417  l1.3877-0.417l1.1099,0.417l1.3872-0.5098l1.249,0.3711l0.6934-0.834l1.1099,0.5557l0.6938-1.4375c0,0,0.8325,0.3711,1.1099,0.5566  c0.2778,0.1855,2.0811-0.4639,2.0811-0.4639l0.9712,0.5098l1.1104-1.2979l1.3872,0.6953l1.9424-1.4834l1.665,1.0195l0.6934-0.7881  c1.5103,0,2.3228-16.1631,2.3228-16.1631s1.5625,15.6064,2.6953,15.6064l1.1104,0.9736l0.416-0.3711l1.249,0.7891l0.6934-0.9746  l0.2773,0.7422l1.1104-0.2314l0.416,0.9268l0.9717-0.3701l0.416,0.6025l0.9707-0.1387l0.9707,0.4629l0.833-0.2314  c0.7627,0.2314,0.9854-2.7236,0.9854-2.7236s0.5664,2.8828,0.8184,2.6309h1.248l0.417,0.2324l0.6943,0.0459l0.5547,0.3711  l0.6934-0.3252l1.5254,0.5107l1.1113-0.3252l1.6641,0.7891l0.9707-0.418l1.1104,0.4639l0.1396-0.0459"/></g><g><line x1="39.69" y1="42.13" x2="35.89" y2="45.95" style="fill:none;stroke:#fff;stroke-width:1.5"/><line x2="31.12" y2="50.71" x1="36.84" y1="44.99" style="fill:none;stroke:#fff;stroke-width:3"/><circle style="fill:none;stroke:#fff;stroke-width:2;" cx="45" cy="37" r="8"/></g></g>
	<!--sweep-->
	<g transform="translate(0, 765)"><line style="fill:none;stroke:#fff;stroke-width:2;" x1="22" y1="42" x2="58" y2="42"/><path style="fill:#fff;" d="M60 42 l-8,-4 0,8 Z"/><line style="fill:none;stroke:#fff;stroke-width:2;" x1="6" y1="47" x2="42" y2="47"/><path style="fill:#fff;" d="M4 47 l8,-4 0,8 Z"/><path style="fill:none;stroke:#fff;stroke-width:3;" d="M5,22 h22 c6,0,4,12,10,12 c10,0,6,0,22,0"/></g>
	<!--swtrig-->
	<g transform="translate(0, 830)"><path style="fill:none;stroke:#fff;stroke-width:2;" d="M7,44 h15 l8-24 h27"/><path style="fill:none;stroke:#fff;stroke-width:2;" d="M7,44 h27 l8-24 h15"/></g>
	<!--inout-->
	<g transform="translate(0, 890)"><line style="fill:none;stroke:#fff;stroke-width:3;" x1="16.5" y1="20" x2="16.5" y2="50"/><line style="fill:none;stroke:#fff;stroke-width:3;" x1="20" y1="28" x2="40" y2="28"/><path style="fill:#fff;" d="M49 28 l-10,-5 0,10 Z"/><line style="fill:none;stroke:#fff;stroke-width:3;" x1="28" y1="42" x2="48" y2="42"/><path style="fill:#fff;" d="M19 42 l10,-5 0,10 Z"/></g>
	<!--aux-->
	<g transform="translate(0, 955)"><line style="fill:none;stroke:#fff;stroke-width:3;" x1="11" y1="26.5" x2="36" y2="26.5"/><polyline points="17,38 17,45 49,45" style="fill:none;stroke:#fff;stroke-width:2"/><path style="fill:#fff;" d="M17 29 l-5,10 10,0 Z"/><polyline points="30,30 30,36 41,36" style="fill:none;stroke:#fff;stroke-width:2"/><path style="fill:#fff;" d="M50 36 l-10,-5 0,10 Z"/></g>
	<!--dio-->
	<g transform="translate(0, 1020)"><path style="fill:none;stroke:#fff;stroke-width:2;" d="M7,24 l22,0 0,-5 L58,19"/><path style="fill:none;stroke:#fff;stroke-width:2;" d="M7,34 l12,0 0,-5 28,0 0,5 L58,34"/><path style="fill:none;stroke:#fff;stroke-width:2;" d="M7,44 l10,0 0,-5 11,0 0,5 11,0 0,-5 11,0 0,5 L58,44"/></g>
	<!--hf2ta-->
	<g transform="translate(0, 1085)"><path style="fill:none;stroke:#fff;stroke-width:2" d="M50,35 l-20,-10 0,20z"/><line style="fill:none;stroke:#fff;stroke-width:2" x1="12" y1="30" x2="30" y2="30"/><line style="fill:none;stroke:#fff;stroke-width:2" x1="12" y1="42" x2="30" y2="42"/><rect style="fill:none;stroke:#fff;stroke-width:2" x="32" y="13" width="12" height="6"/><polyline style="fill:none;stroke:#fff;stroke-width:2" points="20,30 20,16 32,16"/><polyline style="fill:none;stroke:#fff;stroke-width:2" points="44,16 54,16 54,35 50,35"/></g>
	<!--hf2ca-->
	<g transform="translate(0, 1148)"><path style="fill:none;stroke:#fff;stroke-width:2" d="M54,33 l-28,-14 0,28z"/><line style="fill:none;stroke:#fff;stroke-width:2" x1="6" y1="24" x2="26" y2="24"/><line style="fill:none;stroke:#fff;stroke-width:2" x1="6" y1="44" x2="26" y2="44"/><rect style="fill:none;stroke:#fff;stroke-width:2" x="12" y="28" width="6" height="12"/><line style="fill:none;stroke:#fff;stroke-width:2" x1="15" y1="24" x2="15" y2="28"/><line style="fill:none;stroke:#fff;stroke-width:2" x1="15" y1="40" x2="15" y2="44"/></g>
	<!--debug-->
	<g transform="translate(-2, 1216)"><path d="m 33.536294,15.605807 c -2.486406,0.200146 -4.706952,1.902016 -6.308784,4.471093 l 0.02088,0 6.789249,3.311102 6.789265,-3.311102 0.02088,0 c -1.708628,-2.740397 -4.121938,-4.471093 -6.810142,-4.471093 -0.168017,0 -0.335599,-0.01269 -0.501367,0 z m -7.645743,5.462303 c -3.318345,2.730698 -5.473192,7.070627 -5.473192,11.978995 0,7.997025 5.691354,14.528855 12.868251,14.952895 l 0,-23.304435 -7.395059,-3.627455 z m 16.294211,0 -7.395068,3.627455 0,23.304435 c 7.176906,-0.42404 12.868243,-6.95587 12.868243,-14.952895 0,-4.908368 -2.154839,-9.248297 -5.473175,-11.978995 z m -14.435,3.543154 c 1.46836,0 2.653033,1.26786 2.653033,2.825967 0,1.558107 -1.184673,2.826057 -2.653033,2.826057 -1.468367,0 -2.673926,-1.26795 -2.673926,-2.826057 0,-1.558107 1.205559,-2.825967 2.673926,-2.825967 z m 13.45316,0 c 1.468367,0 2.673927,1.26786 2.673927,2.825967 0,1.558107 -1.20556,2.826057 -2.673927,2.826057 -1.468359,0 -2.653025,-1.26795 -2.653025,-2.826057 0,-1.558107 1.184666,-2.825967 2.653025,-2.825967 z m -13.829189,7.760984 c 2.258013,0 4.094445,1.948518 4.094445,4.344643 0,2.396035 -1.836432,4.344462 -4.094445,4.344462 -2.257997,0 -4.094436,-1.948427 -4.094436,-4.344462 0,-2.396125 1.836439,-4.344643 4.094436,-4.344643 z m 13.474069,0 c 2.257998,0 4.073551,1.948518 4.073551,4.344643 0,2.396035 -1.815553,4.344462 -4.073551,4.344462 -2.258005,0 -4.094444,-1.948427 -4.094444,-4.344462 0,-2.396125 1.836439,-4.344643 4.094444,-4.344643 z" style="fill:#fff;fill-rule:evenodd;stroke:none"/><path d="m 21.26641,42.238839 -1.979378,1.998463" style="fill:none;stroke:#fff;stroke-width:2;stroke-linecap:round;"/><path d="m 22.019745,22.539106 -1.97937,-1.998282" style="fill:none;stroke:#fff;stroke-width:2;stroke-linecap:round;"/><path d="m 18.470928,31.442043 -2.799256,0" style="fill:none;stroke:#fff;stroke-width:2;stroke-linecap:round;"/><path d="m 26.958928,16.161011 c 0,0 -1.949836,-0.566716 -1.979378,-3.489483" style="fill:none;stroke:#fff;stroke-width:2;stroke-linecap:round;"/><path d="m 46.733904,42.238839 1.979378,1.998463" style="fill:none;stroke:#fff;stroke-width:2;stroke-linecap:round;"/><path d="m 45.980569,22.539106 1.979362,-1.998282" style="fill:none;stroke:#fff;stroke-width:2;stroke-linecap:round;"/><path d="m 49.529386,31.442043 2.799248,0" style="fill:none;stroke:#fff;stroke-width:2;stroke-linecap:round;"/><path d="m 41.041378,16.161011 c 0,0 1.949836,-0.566716 1.979378,-3.489483" style="fill:none;stroke:#fff;stroke-width:2;stroke-linecap:round;"/></g>
	<!--Boxcar-->
	<g transform="translate(0, 1280)"><path style="fill:none;stroke:#fff;stroke-width:2;" d="M0,48 h64"/><path style="fill:none;stroke:#fff;stroke-width:2;" d="M0,16 h8 v32 h4 v-32 h18 v32 h4 v-32 h18 v32 h4 v-32 h8"/></g>
	<!--PWA-->
	<g transform="translate(0, 1344)"><path style="fill:none;stroke:#fff;stroke-width:2;" d="M12,48v-5.333c0,0,0.007-8.166,0-11.251 C11.963,14.708,13.412,8.714,15.162,8.71c2.041-0.006,2.274,11.187,5.46,11.352c1.753,0.091,1.61-3.717,3.161-3.592 c2.005,0.161,0.862,12.358,2.587,12.358c1.724,0,1.213-3.411,2.874-3.449c0.436-0.01,0.694,3.742,0.748,6.037 c0.056,2.419,0,9.751,0,9.751L30,48"/><path style="fill:none;stroke:#fff;stroke-width:2;" d="M34,48v-5.334c0,0,0.007-8.166,0-11.25 c-0.037-16.708,1.412-22.702,3.162-22.706c2.04-0.006,2.273,11.187,5.46,11.352c1.753,0.091,1.61-3.717,3.161-3.592 c2.006,0.161,0.862,12.358,2.587,12.358c1.724,0,1.214-3.411,2.874-3.449c0.436-0.01,0.694,3.742,0.748,6.037 c0.056,2.418,0,9.75,0,9.75L52,48"/><path style="fill:none;stroke:#fff;stroke-width:2;" d="M56,48v-5.333c0,0,0.007-8.166,0-11.251 C55.963,14.708,57.412,8.714,59.162,8.71c1.898-0.005,2.232,9.689,4.838,11.166c0.194,0.11,0.401,0.174,0.622,0.186"/><path style="fill:none;stroke:#fff;stroke-width:2;" d="M-1.378,20.062c1.753,0.091,1.61-3.717,3.161-3.592 C3.789,16.63,2.646,28.828,4.37,28.828c1.724,0,1.214-3.411,2.874-3.449c0.436-0.01,0.694,3.742,0.748,6.037 c0.056,2.419,0,9.751,0,9.751L8,48"/><path style="fill:none;stroke:#fff;stroke-width:2;" d="M0,48h64"/></g>
	<!--AU-->
	<g transform="translate(0, 1408)"><path fill="none" stroke="#fff" stroke-width="2" d="M12,12l12,12 M24,12L12,24"/><path fill="none" stroke="#fff" stroke-width="2" d="M39,18h14"/><path fill="#fff" d="M44,13h4V9h-4V13"/><path fill="#fff" d="M44,23h4v4h-4V23"/><path fill="none" stroke="#fff" stroke-width="2" d="M10,41h16 M18,33v16"/><path fill="none" stroke="#fff" stroke-width="2" d="M39,41h14"/></g>
	<!-- RFM -->
	<g transform="translate(0, 1472)"><path style="fill:none;stroke:#ffffff;stroke-width:2" d="M12,15 v27 h40 v-22 h-22 l-5,-5 Z"/></g>
	<!-- Impedance -->
	<g transform="translate(0, 1536)"><path style="fill:#ffffff;stroke:none;" d="M42,44H22v-3l16-22H22v-3h20v3L26,41h16V44z"/></g>
	<!-- AWG -->
	<g transform="translate(0, 1600)"><path style="fill:none;stroke:#ffffff;stroke-width:2;" stroke-linecap="square" stroke-linejoin="round" stroke-miterlimit="10" d="M-1,30.128c2.027-1.233,2.552-0.783,3.487-0.163c0.935,0.623,1.3,1.405,2.681-0.471c1.381-1.875,2.041-1.335,2.898,0.771 c0.859,2.108,1.737,3.417,3.01-1.243c1.272-4.662,1.664-4.499,3.215,1.824c1.552,6.325,1.755,7.735,3.436-2.545 s1.759-11.279,3.642,2.515c1.885,13.796,1.72,19.312,4.179-3.037c2.457-22.349,2.615-18.222,4.493,2.607 c1.879,20.83,2.082,31.587,5.441-1.515c3.008-29.605,3.738-19.647,6.308-2.306s3.426,24.23,8.591,8.943 c5.162-15.287,8.695-7.47,14.619-6.618"/></g>
	<!-- LAB -->
	<g transform="translate(0, 1664)"><path style="fill:none;stroke:#ffffff;stroke-width:1" d="M40,45.5H23c-1.602,0-2.368-0.777-2.682-1.241    c-0.503-0.744-0.598-1.752-0.247-2.63c0.282-0.705,3.98-12.16,6.429-19.786v-7.6c-0.568-0.312-1-0.902-1-1.743    c0-1.374,1.296-2,2.5-2h7c1.204,0,2.5,0.626,2.5,2c0,0.84-0.431,1.43-0.997,1.742l0.029,7.826c2.442,7.56,6.104,18.83,6.396,19.56    c0.352,0.879,0.257,1.886-0.247,2.63C42.368,44.722,41.603,45.5,40,45.5z"/><path style="fill:#ffffff;stroke:#ffffff;stroke-width:1" d="M35.95,26.766c-2.849,0-1.7,2.234-3.765,2.785    c-1.368,0.365-3.061-1.599-5.741-1.006c-1.818,5.642-4.26,13.184-4.516,13.826c-0.087,0.219-0.107,0.54,0.046,0.767    c0.203,0.3,0.669,0.362,1.025,0.362h17c0.355,0,0.822-0.063,1.025-0.363c0.153-0.226,0.134-0.547,0.046-0.765    C40.655,41.332,36.573,28.698,35.95,26.766z"/><circle style="fill:#ffffff;" cx="32.186" cy="14.713" r="1.5"/><circle style="fill:#ffffff;" cx="32.686" cy="22.713" r="1"/><circle style="fill:#ffffff;" cx="33.686" cy="5.713" r="1"/><circle style="fill:#ffffff;" cx="30.186" cy="7.213" r="1.5"/></g>
	<!-- Pulse Counter-->
	<g transform="translate(0, 1728)"><g><path style="fill:none;stroke:#ffffff;stroke-width:2;" stroke-miterlimit="10" d="M0,44h6c6,0,4-25,6-25s0,25,6,25h2c6,0,4-25,6-25s0,25,6,25h7c6,0,4-25,6-25s0,25,6,25h13"/></g><g><line style="fill:none;stroke:#ffffff;stroke-width:2;" stroke-miterlimit="10" x1="12" y1="7" x2="12" y2="14"/><line style="fill:none;stroke:#ffffff;stroke-width:2;" stroke-miterlimit="10" x1="24" y1="7" x2="24" y2="14"/><line style="fill:none;stroke:#ffffff;stroke-width:2;" stroke-miterlimit="10" x1="27" y1="7" x2="27" y2="14"/><line style="fill:none;stroke:#ffffff;stroke-width:2;" stroke-miterlimit="10" x1="42" y1="7" x2="42" y2="14"/><line style="fill:none;stroke:#ffffff;stroke-width:2;" stroke-miterlimit="10" x1="45" y1="7" x2="45" y2="14"/><line style="fill:none;stroke:#ffffff;stroke-width:2;" stroke-miterlimit="10" x1="48" y1="7" x2="48" y2="14"/></g></g>
	--&gt;
        
</svg>
