<?xml version="1.0" encoding="utf-8"?>
<!-- Generator: Adobe Illustrator 14.0.0, SVG Export Plug-In  -->
<!DOCTYPE svg PUBLIC "-//W3C//DTD SVG 1.1//EN" "http://www.w3.org/Graphics/SVG/1.1/DTD/svg11.dtd" [
	<!ENTITY ns_flows "http://ns.adobe.com/Flows/1.0/">
]>
<svg version="1.1"
	 xmlns="http://www.w3.org/2000/svg" xmlns:xlink="http://www.w3.org/1999/xlink" xmlns:a="http://ns.adobe.com/AdobeSVGViewerExtensions/3.0/"
	 x="0px" y="0px" width="40px" height="40px" viewBox="40.01 0 40 40" enable-background="new 40.01 0 40 40" xml:space="preserve">
<defs>
</defs>
<circle fill="#000000" stroke="#fff" stroke-width="0.5" stroke-miterlimit="10" cx="60.009" cy="20" r="19.75"/>
<path fill="#fff" d="M54.629,19.629H52V22.5h-0.764v-2.871h-2.62v-0.754h2.62V16.18H52v2.695h2.629V19.629z"/>
<path fill="#fff" d="M59.495,14.763c-0.891,0.561-1.973,1.678-1.973,3.494c0,1.677,0.908,3.074,2.743,3.353v-5.134
	c0-1.818,0.995-2.552,2.148-2.552c1.66,0,3.459,1.59,3.459,4.176c0,2.899-2.062,4.419-4.192,4.629v3.285h-1.415v-3.285
	c-2.097-0.158-4.262-1.467-4.262-4.436c0-2.428,1.746-3.896,2.898-4.385L59.495,14.763z M61.68,21.612
	c1.658-0.228,2.724-1.52,2.724-3.476c0-1.73-1.013-3.091-1.99-3.091c-0.435,0-0.733,0.385-0.733,1.188V21.612L61.68,21.612z"/>
<path fill="#fff" d="M69.703,22.814c0.071,0.298,0.105,0.685,0.105,1.16c0,0.476-0.035,0.861-0.105,1.159
	c-0.068,0.298-0.208,0.552-0.415,0.763c-0.251,0.25-0.571,0.375-0.955,0.375c-0.385,0-0.705-0.126-0.954-0.375
	c-0.208-0.21-0.348-0.466-0.417-0.763c-0.071-0.297-0.105-0.683-0.105-1.159c0-0.475,0.035-0.862,0.105-1.16
	c0.07-0.3,0.209-0.554,0.417-0.767c0.246-0.246,0.565-0.369,0.954-0.369c0.39,0,0.709,0.123,0.955,0.369
	C69.493,22.26,69.632,22.514,69.703,22.814z M69.235,24.443c0.004-0.097,0.007-0.252,0.007-0.469c0-0.216-0.003-0.372-0.007-0.468
	c-0.004-0.094-0.017-0.228-0.036-0.401c-0.018-0.172-0.055-0.315-0.109-0.429c-0.054-0.115-0.124-0.215-0.214-0.3
	c-0.143-0.136-0.327-0.204-0.546-0.204c-0.221,0-0.403,0.069-0.548,0.204c-0.09,0.084-0.161,0.184-0.213,0.3
	c-0.054,0.113-0.089,0.257-0.108,0.429c-0.018,0.171-0.032,0.305-0.036,0.401c-0.003,0.096-0.006,0.252-0.006,0.468
	c0,0.217,0.001,0.373,0.006,0.469c0.004,0.093,0.018,0.228,0.036,0.4c0.02,0.172,0.054,0.315,0.108,0.429
	c0.052,0.114,0.125,0.212,0.213,0.298c0.143,0.135,0.327,0.203,0.548,0.203c0.219,0,0.403-0.068,0.546-0.203
	c0.09-0.085,0.161-0.184,0.214-0.298c0.054-0.114,0.089-0.257,0.109-0.429C69.218,24.671,69.231,24.537,69.235,24.443z"/>
<rect id="_x3C_Slice_x3E__19_" x="40.01" fill="none" width="40" height="40"/>
<circle fill="#000000" stroke="#fff" stroke-width="0.5" stroke-miterlimit="10" cx="20.009" cy="60" r="19.76"/>
<circle fill="#000000" stroke="#fff" stroke-width="0.5" stroke-miterlimit="10" cx="60.01" cy="60" r="19.76"/>
</svg>
