<?xml version="1.0" encoding="UTF-8" standalone="no"?>

<!--generated document-->
<!--Copyright (c) 2012 Zurich Instruments AG, www.zhinst.com-->

<svg xmlns="http://www.w3.org/2000/svg" version="1.1" width="64px" height="64px"><g><path d="m 33.536294,15.605807 c -2.486406,0.200146 -4.706952,1.902016 -6.308784,4.471093 l 0.02088,0 6.789249,3.311102 6.789265,-3.311102 0.02088,0 c -1.708628,-2.740397 -4.121938,-4.471093 -6.810142,-4.471093 -0.168017,0 -0.335599,-0.01269 -0.501367,0 z m -7.645743,5.462303 c -3.318345,2.730698 -5.473192,7.070627 -5.473192,11.978995 0,7.997025 5.691354,14.528855 12.868251,14.952895 l 0,-23.304435 -7.395059,-3.627455 z m 16.294211,0 -7.395068,3.627455 0,23.304435 c 7.176906,-0.42404 12.868243,-6.95587 12.868243,-14.952895 0,-4.908368 -2.154839,-9.248297 -5.473175,-11.978995 z m -14.435,3.543154 c 1.46836,0 2.653033,1.26786 2.653033,2.825967 0,1.558107 -1.184673,2.826057 -2.653033,2.826057 -1.468367,0 -2.673926,-1.26795 -2.673926,-2.826057 0,-1.558107 1.205559,-2.825967 2.673926,-2.825967 z m 13.45316,0 c 1.468367,0 2.673927,1.26786 2.673927,2.825967 0,1.558107 -1.20556,2.826057 -2.673927,2.826057 -1.468359,0 -2.653025,-1.26795 -2.653025,-2.826057 0,-1.558107 1.184666,-2.825967 2.653025,-2.825967 z m -13.829189,7.760984 c 2.258013,0 4.094445,1.948518 4.094445,4.344643 0,2.396035 -1.836432,4.344462 -4.094445,4.344462 -2.257997,0 -4.094436,-1.948427 -4.094436,-4.344462 0,-2.396125 1.836439,-4.344643 4.094436,-4.344643 z m 13.474069,0 c 2.257998,0 4.073551,1.948518 4.073551,4.344643 0,2.396035 -1.815553,4.344462 -4.073551,4.344462 -2.258005,0 -4.094444,-1.948427 -4.094444,-4.344462 0,-2.396125 1.836439,-4.344643 4.094444,-4.344643 z" style="fill:#009ee0;fill-rule:evenodd;stroke:none"/><path d="m 21.26641,42.238839 -1.979378,1.998463" style="fill:none;stroke:#009ee0;stroke-width:2;stroke-linecap:round;"/><path d="m 22.019745,22.539106 -1.97937,-1.998282" style="fill:none;stroke:#009ee0;stroke-width:2;stroke-linecap:round;"/><path d="m 18.470928,31.442043 -2.799256,0" style="fill:none;stroke:#009ee0;stroke-width:2;stroke-linecap:round;"/><path d="m 26.958928,16.161011 c 0,0 -1.949836,-0.566716 -1.979378,-3.489483" style="fill:none;stroke:#009ee0;stroke-width:2;stroke-linecap:round;"/><path d="m 46.733904,42.238839 1.979378,1.998463" style="fill:none;stroke:#009ee0;stroke-width:2;stroke-linecap:round;"/><path d="m 45.980569,22.539106 1.979362,-1.998282" style="fill:none;stroke:#009ee0;stroke-width:2;stroke-linecap:round;"/><path d="m 49.529386,31.442043 2.799248,0" style="fill:none;stroke:#009ee0;stroke-width:2;stroke-linecap:round;"/><path d="m 41.041378,16.161011 c 0,0 1.949836,-0.566716 1.979378,-3.489483" style="fill:none;stroke:#009ee0;stroke-width:2;stroke-linecap:round;"/></g>
        --&gt;
        
      </svg>
