<?xml version="1.0" encoding="UTF-8" standalone="no"?>

<!--generated document-->
<!--Copyright (c) 2012 Zurich Instruments AG, www.zhinst.com-->

<svg xmlns="http://www.w3.org/2000/svg" version="1.1" width="64px" height="64px"><g><path style="fill:none;stroke:#009ee0;stroke-width:2" d="M32.6846,35.7383    c0.042-0.4365,0.0674-0.875,0.0693-1.3252c-0.001-0.4473-0.0273-0.8936-0.0693-1.3281l-4.1431-0.7656    c-0.2451-1.082-0.6729-2.0938-1.2529-3.0039l2.3955-3.4771c-0.562-0.686-1.1924-1.3169-1.8799-1.8799l-3.4746,2.3955    c-0.9106-0.5796-1.9243-1.0068-3.0073-1.2495l-0.7637-4.1479c-0.4375-0.042-0.8818-0.0674-1.3276-0.0664    c-0.4517-0.001-0.8911,0.0249-1.3286,0.0649l-0.7632,4.1499c-1.0859,0.2422-2.0986,0.6694-3.0068,1.2456l-3.4751-2.3916    c-0.687,0.5625-1.3169,1.1929-1.8809,1.8784l2.3955,3.4751c-0.5796,0.9111-1.0049,1.9229-1.2495,3.0068L5.7749,33.083    c-0.041,0.4385-0.0664,0.8818-0.0664,1.3311c0,0.4473,0.0254,0.8887,0.0664,1.3271l4.1479,0.7646    c0.2432,1.083,0.6704,2.0967,1.249,3.0039l-2.3945,3.4775c0.5635,0.6836,1.1924,1.3145,1.8799,1.8779l3.4746-2.3945    c0.9077,0.5762,1.9229,1.0068,3.0063,1.248l0.7642,4.1484c0.438,0.043,0.8818,0.0693,1.3281,0.0684    c0.4473-0.001,0.8906-0.0273,1.3281-0.0703l0.7642-4.1455c1.0825-0.2441,2.0952-0.6738,3.0059-1.25l3.4761,2.3955    c0.6826-0.5625,1.3164-1.1924,1.877-1.877l-2.3926-3.4775c0.5796-0.9072,1.0078-1.9209,1.251-3.0059L32.6846,35.7383z     M19.2305,39.1846c-2.6348,0.002-4.77-2.1377-4.771-4.7744c0-2.6318,2.1382-4.7705,4.771-4.7705    c2.6372,0.0005,4.7715,2.1377,4.771,4.7695C24.0015,37.0469,21.8677,39.1846,19.2305,39.1846z"/><path style="fill:none;stroke:#009ee0;stroke-width:2" d="M57.291,20.0796    c-0.127-0.4204-0.2715-0.834-0.4414-1.251c-0.1738-0.4126-0.3672-0.814-0.5723-1.2002l-4.1211,0.8779    c-0.6406-0.9063-1.4238-1.6772-2.3086-2.2949l0.8828-4.1294c-0.7813-0.4194-1.6055-0.7607-2.4551-1.0171l-2.2949,3.5425    c-1.0625-0.1875-2.1621-0.1938-3.2559-0.0029l-2.293-3.5405c-0.4199,0.1284-0.8398,0.2749-1.25,0.4463    c-0.418,0.1724-0.8145,0.3638-1.2031,0.5679l0.8809,4.127c-0.9082,0.6392-1.6816,1.4209-2.3008,2.3022l-4.125-0.8809    c-0.4189,0.7822-0.7603,1.6064-1.0195,2.4561l3.543,2.293c-0.1855,1.0635-0.1934,2.1621-0.0039,3.2573l-3.5381,2.2915    c0.1289,0.4209,0.2754,0.8413,0.4468,1.2554c0.1714,0.4131,0.3638,0.811,0.5693,1.2002l4.1255-0.8794    c0.6387,0.9067,1.4219,1.6802,2.3027,2.2964l-0.8809,4.1289c0.7832,0.416,1.6055,0.7578,2.4551,1.0156l2.2949-3.542    c1.0586,0.1846,2.1602,0.1943,3.2539,0.0029l2.2949,3.54c0.4199-0.1279,0.8398-0.2734,1.252-0.4453    c0.4121-0.1709,0.8125-0.3662,1.2012-0.5732l-0.8809-4.1211c0.9063-0.6416,1.6777-1.4258,2.2988-2.3062l4.127,0.8823    c0.416-0.7808,0.7598-1.6045,1.0156-2.4521l-3.541-2.2974c0.1895-1.0586,0.1953-2.1597,0.0059-3.2554L57.291,20.0796z     M46.1797,28.4126c-2.4316,1.0098-5.2246-0.1499-6.2344-2.5859c-1.0078-2.4312,0.1504-5.2251,2.582-6.2314    c2.4375-1.0098,5.2266,0.1475,6.2324,2.5796C49.7715,24.6113,48.6172,27.4033,46.1797,28.4126z"/></g>
        --&gt;
        
      </svg>
