<?xml version="1.0" encoding="utf-8"?>
<!-- Generator: Adobe Illustrator 14.0.0, SVG Export Plug-In  -->
<!DOCTYPE svg PUBLIC "-//W3C//DTD SVG 1.1//EN" "http://www.w3.org/Graphics/SVG/1.1/DTD/svg11.dtd" [
	<!ENTITY ns_flows "http://ns.adobe.com/Flows/1.0/">
]>
<svg version="1.1"
	 xmlns="http://www.w3.org/2000/svg" xmlns:xlink="http://www.w3.org/1999/xlink" xmlns:a="http://ns.adobe.com/AdobeSVGViewerExtensions/3.0/"
	 x="0px" y="0px" width="256px" height="220px" viewBox="-0.75 0.182 256 220" enable-background="new -0.75 0.182 256 220"
	 xml:space="preserve">
<defs>
</defs>
<rect x="149.499" y="1.37" fill="#000" stroke="#fff" stroke-width="0.5" stroke-linecap="round" stroke-linejoin="round" stroke-miterlimit="10" width="103.477" height="192.76"/>
<polyline fill="none" stroke="#fff" stroke-width="0.5" stroke-linecap="round" stroke-linejoin="round" stroke-miterlimit="10" points="
	97.103,206.397 157.713,206.397 157.713,32.978 "/>
<rect x="2.024" y="1.37" fill="#000" stroke="#fff" stroke-width="0.5" stroke-linecap="round" stroke-linejoin="round" stroke-miterlimit="10" width="103.477" height="192.76"/>
<circle fill="#000" stroke="#fff" stroke-width="0.5" stroke-linecap="round" stroke-linejoin="round" stroke-miterlimit="10" cx="97.286" cy="141.423" r="8.217"/>
<circle stroke="#fff" stroke-width="0.5" stroke-linecap="round" stroke-linejoin="round" stroke-miterlimit="10" cx="97.286" cy="141.423" r="1.41"/>
<line fill="none" stroke="#fff" stroke-width="0.5" stroke-miterlimit="10" x1="97.286" y1="149.64" x2="97.286" y2="194.163"/>
<circle fill="#000" stroke="#fff" stroke-width="0.5" stroke-linecap="round" stroke-linejoin="round" stroke-miterlimit="10" cx="97.286" cy="166.112" r="8.217"/>
<circle stroke="#fff" stroke-width="0.5" stroke-linecap="round" stroke-linejoin="round" stroke-miterlimit="10" cx="97.286" cy="166.112" r="1.41"/>
<line fill="none" stroke="#fff" stroke-width="0.5" stroke-miterlimit="10" x1="91.832" y1="218.438" x2="102.736" y2="218.438"/>
<circle fill="#000" stroke="#fff" stroke-width="0.5" stroke-linecap="round" stroke-linejoin="round" stroke-miterlimit="10" cx="97.286" cy="32.423" r="8.217"/>
<circle stroke="#fff" stroke-width="0.5" stroke-linecap="round" stroke-linejoin="round" stroke-miterlimit="10" cx="97.286" cy="32.423" r="1.41"/>
<line fill="none" stroke="#fff" stroke-width="0.5" stroke-miterlimit="10" x1="97.286" y1="40.638" x2="97.286" y2="133.206"/>
<circle fill="#000" stroke="#fff" stroke-width="0.5" stroke-linecap="round" stroke-linejoin="round" stroke-miterlimit="10" cx="97.286" cy="57.112" r="8.217"/>
<circle stroke="#fff" stroke-width="0.5" stroke-linecap="round" stroke-linejoin="round" stroke-miterlimit="10" cx="97.286" cy="57.112" r="1.41"/>
<path fill="#fff" d="M62.303,169.313v-8.59h1.137v7.576h4.23v1.014H62.303z"/>
<path fill="#fff" d="M72.801,167.305l0.758,0.191c-0.158,0.622-0.445,1.097-0.857,1.424s-0.918,0.49-1.514,0.49
	c-0.617,0-1.119-0.126-1.506-0.377s-0.682-0.615-0.883-1.092s-0.303-0.988-0.303-1.535c0-0.597,0.113-1.116,0.342-1.561
	s0.553-0.781,0.973-1.012s0.883-0.346,1.389-0.346c0.572,0,1.055,0.146,1.445,0.438s0.662,0.702,0.816,1.23l-0.746,0.176
	c-0.133-0.417-0.326-0.72-0.578-0.91s-0.57-0.285-0.953-0.285c-0.439,0-0.809,0.105-1.104,0.316s-0.504,0.494-0.623,0.85
	s-0.18,0.722-0.18,1.1c0,0.487,0.07,0.912,0.213,1.275s0.363,0.635,0.662,0.814s0.623,0.27,0.973,0.27
	c0.424,0,0.783-0.122,1.078-0.367S72.697,167.786,72.801,167.305z"/>
<path fill="#fff" d="M78.25,163.586h0.758v3.309c0,0.575-0.064,1.032-0.195,1.371s-0.365,0.614-0.705,0.826
	s-0.785,0.318-1.338,0.318c-0.537,0-0.975-0.093-1.316-0.277s-0.584-0.452-0.73-0.803s-0.219-0.829-0.219-1.436v-3.309h0.758v3.305
	c0,0.497,0.047,0.864,0.139,1.1s0.252,0.417,0.477,0.545s0.5,0.191,0.826,0.191c0.557,0,0.955-0.126,1.191-0.379
	s0.355-0.738,0.355-1.457V163.586z"/>
<path fill="#fff" d="M80.281,169.313v-5.727h2.539c0.51,0,0.898,0.052,1.164,0.154s0.479,0.284,0.637,0.545
	s0.238,0.548,0.238,0.863c0,0.406-0.131,0.749-0.395,1.027s-0.67,0.456-1.219,0.531c0.201,0.097,0.354,0.191,0.457,0.285
	c0.221,0.203,0.432,0.457,0.629,0.762l0.996,1.559h-0.953l-0.758-1.191c-0.221-0.344-0.404-0.606-0.547-0.789
	s-0.271-0.31-0.385-0.383s-0.229-0.124-0.346-0.152c-0.086-0.019-0.227-0.027-0.422-0.027h-0.879v2.543H80.281z M81.039,166.113
	h1.629c0.346,0,0.617-0.036,0.813-0.107s0.344-0.187,0.445-0.344s0.152-0.329,0.152-0.514c0-0.271-0.098-0.493-0.295-0.668
	s-0.508-0.262-0.932-0.262h-1.813V166.113z"/>
<path fill="#fff" d="M63.334,144.623v-8.59h1.137v7.576h4.23v1.014H63.334z"/>
<path fill="#fff" d="M69.746,144.623v-5.727h2.16c0.381,0,0.67,0.019,0.871,0.055c0.281,0.047,0.518,0.136,0.707,0.268
	s0.344,0.315,0.459,0.553s0.174,0.497,0.174,0.781c0,0.487-0.154,0.899-0.465,1.236s-0.869,0.506-1.68,0.506h-1.469v2.328H69.746z
	 M70.504,141.619h1.48c0.49,0,0.838-0.091,1.043-0.273s0.309-0.438,0.309-0.77c0-0.239-0.061-0.444-0.182-0.615
	s-0.281-0.283-0.479-0.338c-0.127-0.034-0.363-0.051-0.707-0.051h-1.465V141.619z"/>
<path fill="#fff" d="M74.852,141.834c0-0.95,0.256-1.694,0.766-2.232s1.17-0.807,1.977-0.807c0.529,0,1.006,0.126,1.43,0.379
	s0.748,0.604,0.971,1.057s0.334,0.964,0.334,1.537c0,0.581-0.117,1.101-0.352,1.559s-0.566,0.806-0.996,1.041
	s-0.893,0.354-1.391,0.354c-0.539,0-1.021-0.13-1.445-0.391s-0.746-0.616-0.965-1.066S74.852,142.337,74.852,141.834z
	 M75.633,141.846c0,0.69,0.186,1.233,0.557,1.631s0.836,0.596,1.396,0.596c0.57,0,1.039-0.2,1.408-0.602s0.553-0.97,0.553-1.707
	c0-0.466-0.078-0.873-0.236-1.221s-0.389-0.617-0.691-0.809s-0.645-0.287-1.021-0.287c-0.537,0-0.998,0.185-1.385,0.553
	S75.633,140.983,75.633,141.846z"/>
<path fill="#fff" d="M82.762,144.623v-5.051h-1.887v-0.676h4.539v0.676H83.52v5.051H82.762z"/>
<path fill="#fff" d="M60.393,35.624v-8.59h1.137v3.527h4.465v-3.527h1.137v8.59h-1.137v-4.049h-4.465v4.049H60.393z"/>
<path fill="#fff" d="M72.801,33.616l0.758,0.191c-0.158,0.622-0.445,1.097-0.857,1.424s-0.918,0.49-1.514,0.49
	c-0.617,0-1.119-0.126-1.506-0.377S69,34.729,68.799,34.253s-0.303-0.988-0.303-1.535c0-0.597,0.113-1.116,0.342-1.561
	s0.553-0.781,0.973-1.012s0.883-0.346,1.389-0.346c0.572,0,1.055,0.146,1.445,0.438s0.662,0.702,0.816,1.23l-0.746,0.176
	c-0.133-0.417-0.326-0.72-0.578-0.91s-0.57-0.285-0.953-0.285c-0.439,0-0.809,0.105-1.104,0.316s-0.504,0.494-0.623,0.85
	s-0.18,0.722-0.18,1.1c0,0.487,0.07,0.912,0.213,1.275s0.363,0.635,0.662,0.814s0.623,0.27,0.973,0.27
	c0.424,0,0.783-0.122,1.078-0.367S72.697,34.098,72.801,33.616z"/>
<path fill="#fff" d="M78.25,29.897h0.758v3.309c0,0.575-0.064,1.032-0.195,1.371s-0.365,0.614-0.705,0.826
	s-0.785,0.318-1.338,0.318c-0.537,0-0.975-0.093-1.316-0.277s-0.584-0.452-0.73-0.803s-0.219-0.829-0.219-1.436v-3.309h0.758v3.305
	c0,0.497,0.047,0.864,0.139,1.1s0.252,0.417,0.477,0.545s0.5,0.191,0.826,0.191c0.557,0,0.955-0.126,1.191-0.379
	s0.355-0.738,0.355-1.457V29.897z"/>
<path fill="#fff" d="M80.281,35.624v-5.727h2.539c0.51,0,0.898,0.052,1.164,0.154s0.479,0.284,0.637,0.545
	s0.238,0.548,0.238,0.863c0,0.406-0.131,0.749-0.395,1.027s-0.67,0.456-1.219,0.531c0.201,0.097,0.354,0.191,0.457,0.285
	c0.221,0.203,0.432,0.457,0.629,0.762l0.996,1.559h-0.953l-0.758-1.191c-0.221-0.344-0.404-0.606-0.547-0.789
	s-0.271-0.31-0.385-0.383s-0.229-0.124-0.346-0.152c-0.086-0.019-0.227-0.027-0.422-0.027h-0.879v2.543H80.281z M81.039,32.425
	h1.629c0.346,0,0.617-0.036,0.813-0.107s0.344-0.187,0.445-0.344s0.152-0.329,0.152-0.514c0-0.271-0.098-0.493-0.295-0.668
	s-0.508-0.262-0.932-0.262h-1.813V32.425z"/>
<path fill="#fff" d="M61.424,60.313v-8.59h1.137v3.527h4.465v-3.527h1.137v8.59h-1.137v-4.049h-4.465v4.049H61.424z"/>
<path fill="#fff" d="M69.746,60.313v-5.727h2.16c0.381,0,0.67,0.019,0.871,0.055c0.281,0.047,0.518,0.136,0.707,0.268
	s0.344,0.315,0.459,0.553s0.174,0.497,0.174,0.781c0,0.487-0.154,0.899-0.465,1.236s-0.869,0.506-1.68,0.506h-1.469v2.328H69.746z
	 M70.504,57.31h1.48c0.49,0,0.838-0.091,1.043-0.273s0.309-0.438,0.309-0.77c0-0.239-0.061-0.444-0.182-0.615
	s-0.281-0.283-0.479-0.338c-0.127-0.034-0.363-0.051-0.707-0.051h-1.465V57.31z"/>
<path fill="#fff" d="M74.852,57.524c0-0.95,0.256-1.694,0.766-2.232s1.17-0.807,1.977-0.807c0.529,0,1.006,0.126,1.43,0.379
	s0.748,0.604,0.971,1.057s0.334,0.964,0.334,1.537c0,0.581-0.117,1.101-0.352,1.559s-0.566,0.806-0.996,1.041
	s-0.893,0.354-1.391,0.354c-0.539,0-1.021-0.13-1.445-0.391s-0.746-0.616-0.965-1.066S74.852,58.027,74.852,57.524z M75.633,57.536
	c0,0.69,0.186,1.233,0.557,1.631s0.836,0.596,1.396,0.596c0.57,0,1.039-0.2,1.408-0.602s0.553-0.97,0.553-1.707
	c0-0.466-0.078-0.873-0.236-1.221s-0.389-0.617-0.691-0.809s-0.645-0.287-1.021-0.287c-0.537,0-0.998,0.185-1.385,0.553
	S75.633,56.674,75.633,57.536z"/>
<path fill="#fff" d="M82.762,60.313v-5.051h-1.887v-0.676h4.539v0.676H83.52v5.051H82.762z"/>
<circle fill="#fff" cx="97.286" cy="206.397" r="3"/>
<line fill="none" stroke="#fff" stroke-width="0.5" stroke-miterlimit="10" x1="97.286" y1="194.163" x2="97.286" y2="218.63"/>
<circle fill="#000" stroke="#fff" stroke-width="0.5" stroke-linecap="round" stroke-linejoin="round" stroke-miterlimit="10" cx="157.714" cy="141.423" r="8.217"/>
<circle stroke="#fff" stroke-width="0.5" stroke-linecap="round" stroke-linejoin="round" stroke-miterlimit="10" cx="157.714" cy="141.423" r="1.41"/>
<circle fill="#000" stroke="#fff" stroke-width="0.5" stroke-linecap="round" stroke-linejoin="round" stroke-miterlimit="10" cx="157.714" cy="166.112" r="8.217"/>
<circle stroke="#fff" stroke-width="0.5" stroke-linecap="round" stroke-linejoin="round" stroke-miterlimit="10" cx="157.714" cy="166.112" r="1.41"/>
<circle fill="#000" stroke="#fff" stroke-width="0.5" stroke-linecap="round" stroke-linejoin="round" stroke-miterlimit="10" cx="157.714" cy="32.423" r="8.217"/>
<circle stroke="#fff" stroke-width="0.5" stroke-linecap="round" stroke-linejoin="round" stroke-miterlimit="10" cx="157.714" cy="32.423" r="1.41"/>
<circle fill="#000" stroke="#fff" stroke-width="0.5" stroke-linecap="round" stroke-linejoin="round" stroke-miterlimit="10" cx="157.714" cy="57.112" r="8.217"/>
<circle stroke="#fff" stroke-width="0.5" stroke-linecap="round" stroke-linejoin="round" stroke-miterlimit="10" cx="157.714" cy="57.112" r="1.41"/>
<rect id="_x3C_Slice_x3E__10_" fill="none" width="255" height="220"/>
<line fill="none" stroke="#fff" stroke-width="0.5" stroke-linecap="round" stroke-linejoin="round" stroke-miterlimit="10" x1="157.173" y1="166.112" x2="97.286" y2="166.112"/>
<line fill="none" stroke="#fff" stroke-width="0.5" stroke-linecap="round" stroke-linejoin="round" stroke-miterlimit="10" x1="157.173" y1="141.448" x2="97.284" y2="141.448"/>
<line fill="none" stroke="#fff" stroke-width="0.5" stroke-linecap="round" stroke-linejoin="round" stroke-miterlimit="10" x1="157.173" y1="57.112" x2="97.286" y2="57.112"/>
<line fill="none" stroke="#fff" stroke-width="0.5" stroke-linecap="round" stroke-linejoin="round" stroke-miterlimit="10" x1="157.173" y1="32.448" x2="97.284" y2="32.448"/>
<polyline fill="none" stroke="#fff" stroke-width="0.5" stroke-miterlimit="10" points="201.237,57.042 201.237,32.448 
	157.933,32.448 "/>
<polyline fill="none" stroke="#fff" stroke-width="0.5" stroke-miterlimit="10" points="201.237,141.514 201.237,166.112 
	157.933,166.112 "/>
</svg>
