<?xml version="1.0" encoding="utf-8"?>
<!-- Generator: Adobe Illustrator 14.0.0, SVG Export Plug-In  -->
<!DOCTYPE svg PUBLIC "-//W3C//DTD SVG 1.1//EN" "http://www.w3.org/Graphics/SVG/1.1/DTD/svg11.dtd" [
	<!ENTITY ns_flows "http://ns.adobe.com/Flows/1.0/">
]>
<svg version="1.1"
	 xmlns="http://www.w3.org/2000/svg" xmlns:xlink="http://www.w3.org/1999/xlink" xmlns:a="http://ns.adobe.com/AdobeSVGViewerExtensions/3.0/"
	 x="0px" y="0px" width="256px" height="220px" viewBox="-0.75 0.182 256 220" enable-background="new -0.75 0.182 256 220"
	 xml:space="preserve">
<defs>
</defs>
<rect id="_x3C_Slice_x3E__10_" fill="none" width="255" height="220"/>
<line fill="none" stroke="#fff" stroke-miterlimit="10" x1="223.487" y1="101.683" x2="209.487" y2="101.683"/>
<line fill="none" stroke="#fff" stroke-miterlimit="10" x1="223.487" y1="96.013" x2="209.487" y2="96.013"/>
<path fill="#fff" d="M174.949,98.481v-1.008l3.639-0.006v3.188c-0.559,0.445-1.135,0.78-1.729,1.005s-1.203,0.337-1.828,0.337
	c-0.844,0-1.61-0.181-2.3-0.542s-1.21-0.884-1.562-1.567s-0.527-1.447-0.527-2.291c0-0.836,0.175-1.616,0.524-2.341
	s0.853-1.263,1.509-1.614s1.412-0.527,2.268-0.527c0.621,0,1.183,0.101,1.685,0.302s0.896,0.481,1.181,0.841s0.502,0.828,0.65,1.406
	l-1.025,0.281c-0.129-0.438-0.289-0.781-0.48-1.031s-0.465-0.45-0.82-0.601s-0.75-0.226-1.184-0.226
	c-0.52,0-0.969,0.079-1.348,0.237s-0.685,0.366-0.917,0.624s-0.413,0.541-0.542,0.85c-0.219,0.531-0.328,1.107-0.328,1.729
	c0,0.766,0.132,1.406,0.396,1.922s0.647,0.898,1.151,1.148s1.039,0.375,1.605,0.375c0.492,0,0.973-0.095,1.441-0.284
	s0.824-0.392,1.066-0.606v-1.6H174.949z"/>
<path fill="#fff" d="M226.786,104.462l0.199-0.896c0.211,0.055,0.377,0.082,0.498,0.082c0.215,0,0.375-0.071,0.48-0.214
	s0.158-0.499,0.158-1.069v-6.539h1.055v6.563c0,0.766-0.1,1.299-0.299,1.6c-0.254,0.391-0.676,0.586-1.266,0.586
	C227.327,104.573,227.052,104.536,226.786,104.462z M228.122,94.683v-1.225h1.055v1.225H228.122z"/>
<path fill="#fff" d="M230.882,102.048v-8.59h3.223c0.656,0,1.183,0.087,1.579,0.261s0.707,0.441,0.932,0.803
	s0.337,0.739,0.337,1.134c0,0.367-0.1,0.713-0.299,1.037s-0.5,0.586-0.902,0.785c0.52,0.152,0.919,0.412,1.198,0.779
	s0.419,0.801,0.419,1.301c0,0.402-0.085,0.776-0.255,1.122s-0.38,0.612-0.63,0.8s-0.563,0.329-0.94,0.425s-0.839,0.144-1.386,0.144
	H230.882z M232.019,97.067h1.857c0.504,0,0.865-0.033,1.084-0.1c0.289-0.086,0.507-0.229,0.653-0.428s0.22-0.449,0.22-0.75
	c0-0.285-0.068-0.536-0.205-0.753s-0.332-0.365-0.586-0.445s-0.689-0.12-1.307-0.12h-1.717V97.067z M232.019,101.034h2.139
	c0.367,0,0.625-0.014,0.773-0.041c0.262-0.047,0.48-0.125,0.656-0.234s0.32-0.269,0.434-0.478s0.17-0.45,0.17-0.724
	c0-0.32-0.082-0.599-0.246-0.835s-0.392-0.402-0.683-0.498s-0.71-0.144-1.257-0.144h-1.986V101.034z"/>
<polyline fill="none" stroke="#fff" stroke-width="0.5" stroke-miterlimit="10" points="216.487,101.718 216.487,127.09 
	185.987,127.09 185.986,111.213 185.986,108.014 182.874,106.457 189.1,103.344 182.874,100.232 189.1,97.119 182.874,94.006 
	189.1,90.893 185.986,89.336 185.986,86.088 185.987,71.471 216.487,71.471 216.487,95.779 "/>
<line fill="none" stroke="#fff" stroke-width="0.5" stroke-miterlimit="10" x1="201.238" y1="71.709" x2="201.237" y2="57.039"/>
<line fill="none" stroke="#fff" stroke-width="0.5" stroke-miterlimit="10" x1="201.238" y1="127.09" x2="201.237" y2="141.521"/>
</svg>
