<?xml version="1.0" encoding="UTF-8" standalone="no"?>

<!--generated document-->
<!--Copyright (c) 2012 Zurich Instruments AG, www.zhinst.com-->

<svg xmlns="http://www.w3.org/2000/svg" version="1.1" width="64px" height="64px" viewBox="0 0 64 64">
  <g>
    <g style="font-size:10px;font-style:normal;font-variant:normal;font-weight:normal;font-stretch:normal;text-align:start;line-height:125%;letter-spacing:0px;word-spacing:0px;writing-mode:lr-tb;text-anchor:start;fill:#fff;fill-opacity:1;stroke:none;font-family:Akkurat;-inkscape-font-specification:Akkurat">
      <path d="m 6,42.610001 0,-21.27 2.67,0 0,18.78 10.23,0 0,2.49 -12.9,0" style="font-size:30px;letter-spacing:-2px;font-family:Akkurat;-inkscape-font-specification:Akkurat"/>
      <path d="m 19.781875,23.950001 0,-3 2.97,0 0,3 -2.97,0 m 0.18,18.66 0,-15.18 2.61,0 0,15.18 -2.61,0" style="font-size:30px;letter-spacing:-2px;font-family:Akkurat;-inkscape-font-specification:Akkurat"/>
      <path d="m 35.885,42.610001 0,-9.63 c -1.3e-5,-1.13999 -0.260012,-2.029989 -0.78,-2.67 -0.500011,-0.639987 -1.35001,-0.959987 -2.55,-0.96 -0.740008,1.3e-5 -1.390008,0.220013 -1.95,0.66 -0.560007,0.420012 -1.010006,0.980011 -1.35,1.68 -0.260006,0.56001 -0.420005,1.200009 -0.48,1.92 -0.04,0.720008 -0.06001,1.370007 -0.06,1.95 l 0,7.05 -2.55,0 0,-15.18 2.22,0 0.21,2.28 c 0.199995,-0.439987 0.469994,-0.819987 0.81,-1.14 0.339994,-0.339986 0.719993,-0.619986 1.14,-0.84 0.419992,-0.219985 0.859992,-0.389985 1.32,-0.51 0.459991,-0.119985 0.899991,-0.179985 1.32,-0.18 1.739988,1.5e-5 3.049987,0.490015 3.93,1.47 0.879985,0.980013 1.319985,2.350011 1.32,4.11 l 0,9.99 -2.55,0" style="font-size:30px;letter-spacing:-2px;font-family:Akkurat;-inkscape-font-specification:Akkurat"/>
    </g>
  </g>
</svg>
