<?xml version="1.0" encoding="UTF-8" standalone="no"?>

<!--generated document-->
<!--Copyright (c) 2012 Zurich Instruments AG, www.zhinst.com-->

<svg xmlns="http://www.w3.org/2000/svg" version="1.1" width="64px" height="64px" viewBox="0 0 64 64">
  <g>
    <g style="font-size:10px;font-style:normal;font-variant:normal;font-weight:normal;font-stretch:normal;text-align:start;line-height:125%;letter-spacing:0px;word-spacing:0px;writing-mode:lr-tb;text-anchor:start;fill:#fff;fill-opacity:1;stroke:none;font-family:Akkurat;-inkscape-font-specification:Akkurat">
      <path d="m 23.85,42.610001 0,-17.94 -6.6,17.64 -2.1,0 -6.6,-17.79 0,18.09 -2.55,0 0,-21.27 3.84,0 6.42,17.31 6.39,-17.31 3.75,0 0,21.27 -2.55,0" style="font-size:30px;letter-spacing:-2px;font-family:Akkurat;-inkscape-font-specification:Akkurat"/>
      <path d="m 42.935781,42.460001 c -0.280015,0.14 -0.550015,0.23 -0.81,0.27 -0.260014,0.06 -0.550014,0.09 -0.87,0.09 -0.680013,-10e-7 -1.220012,-0.22 -1.62,-0.66 -0.380012,-0.459999 -0.570011,-1.009999 -0.57,-1.65 l -0.06,0 c -0.440011,0.760001 -1.10001,1.37 -1.98,1.83 -0.860008,0.439999 -1.830008,0.659999 -2.91,0.66 -0.880006,-10e-7 -1.650005,-0.130001 -2.31,-0.39 -0.640003,-0.28 -1.180003,-0.64 -1.62,-1.08 -0.420002,-0.439999 -0.740002,-0.939998 -0.96,-1.5 -0.220001,-0.559997 -0.330001,-1.129997 -0.33,-1.71 -1e-6,-0.479996 0.08,-0.989995 0.24,-1.53 0.179998,-0.539994 0.479998,-1.029994 0.9,-1.47 0.419997,-0.459993 0.969997,-0.849992 1.65,-1.17 0.699995,-0.319992 1.569994,-0.509991 2.61,-0.57 l 4.62,-0.27 0,-1.11 c -1.1e-5,-0.37999 -0.05001,-0.779989 -0.15,-1.2 -0.08001,-0.419988 -0.290011,-0.789988 -0.63,-1.11 -0.26001,-0.239987 -0.59001,-0.429987 -0.99,-0.57 -0.380009,-0.139987 -0.880009,-0.209987 -1.5,-0.21 -0.700007,1.3e-5 -1.270007,0.09001 -1.71,0.27 -0.440006,0.160013 -0.790005,0.370012 -1.05,0.63 -0.500005,0.500012 -0.750004,1.110011 -0.75,1.83 l -2.49,0 c 0.02,-0.699989 0.139998,-1.299988 0.36,-1.8 0.239997,-0.519987 0.559997,-0.979987 0.96,-1.38 0.519996,-0.539986 1.189996,-0.939985 2.01,-1.2 0.839994,-0.279985 1.729993,-0.419985 2.67,-0.42 1.479991,1.5e-5 2.649989,0.280015 3.51,0.84 0.859988,0.540014 1.469987,1.230013 1.83,2.07 0.299986,0.700012 0.449986,1.480011 0.45,2.34 l 0,7.35 c -1.4e-5,0.400002 0.06999,0.670002 0.21,0.81 0.159986,0.140002 0.369986,0.210002 0.63,0.21 0.05998,2e-6 0.129985,2e-6 0.21,0 0.07999,2e-6 0.149985,-0.01 0.21,-0.03 l 0.24,-0.06 0,1.89 m -4.02,-7.17 -4.08,0.24 c -0.380007,0.02001 -0.770006,0.09001 -1.17,0.21 -0.400006,0.100006 -0.760005,0.260006 -1.08,0.48 -0.320005,0.200006 -0.580004,0.470006 -0.78,0.81 -0.200004,0.340005 -0.300004,0.750004 -0.3,1.23 -4e-6,0.680003 0.229996,1.290003 0.69,1.83 0.459995,0.520002 1.229994,0.780001 2.31,0.78 0.579993,10e-7 1.139992,-0.1 1.68,-0.3 0.559991,-0.199998 1.03999,-0.509998 1.44,-0.93 0.45999,-0.459997 0.789989,-0.989996 0.99,-1.59 0.199989,-0.599995 0.299989,-1.219995 0.3,-1.86 l 0,-0.9" style="font-size:30px;letter-spacing:-2px;font-family:Akkurat;-inkscape-font-specification:Akkurat"/>
      <path d="m 54.693594,42.610001 0,-9.63 c -1.3e-5,-1.13999 -0.260012,-2.029989 -0.78,-2.67 -0.500011,-0.639987 -1.350011,-0.959987 -2.55,-0.96 -0.740009,1.3e-5 -1.390008,0.220013 -1.95,0.66 -0.560007,0.420012 -1.010006,0.980011 -1.35,1.68 -0.260006,0.56001 -0.420006,1.200009 -0.48,1.92 -0.04001,0.720008 -0.06001,1.370007 -0.06,1.95 l 0,7.05 -2.55,0 0,-15.18 2.22,0 0.21,2.28 c 0.199994,-0.439987 0.469994,-0.819987 0.81,-1.14 0.339993,-0.339986 0.719993,-0.619986 1.14,-0.84 0.419992,-0.219985 0.859992,-0.389985 1.32,-0.51 0.459991,-0.119985 0.89999,-0.179985 1.32,-0.18 1.739988,1.5e-5 3.049987,0.490015 3.93,1.47 0.879985,0.980013 1.319985,2.350011 1.32,4.11 l 0,9.99 -2.55,0" style="font-size:30px;letter-spacing:-2px;font-family:Akkurat;-inkscape-font-specification:Akkurat"/>
    </g>
  </g>
</svg>
