<?xml version="1.0" encoding="UTF-8" standalone="no"?>

<!--generated document-->
<!--Copyright (c) 2012 Zurich Instruments AG, www.zhinst.com-->

<svg xmlns="http://www.w3.org/2000/svg" version="1.1" width="64px" height="64px" viewBox="0 0 64 64">
  <g>
    <g style="font-size:10px;font-style:normal;font-variant:normal;font-weight:normal;font-stretch:normal;text-align:start;line-height:125%;letter-spacing:0px;word-spacing:0px;writing-mode:lr-tb;text-anchor:start;fill:#fff;fill-opacity:1;stroke:none;font-family:Akkurat;-inkscape-font-specification:Akkurat">
      <path d="m 6,42.610001 0,-21.27 2.67,0 0,18.78 10.23,0 0,2.49 -12.9,0" style="font-size:30px;letter-spacing:-2px;font-family:Akkurat;-inkscape-font-specification:Akkurat"/>
      <path d="m 31.998906,35.020001 c -1.5e-5,1.200006 -0.150015,2.330005 -0.45,3.39 -0.300014,1.060003 -0.870014,2.000002 -1.71,2.82 -0.560012,0.54 -1.230011,0.97 -2.01,1.29 -0.76001,0.319999 -1.620009,0.479999 -2.58,0.48 -0.960007,-10e-7 -1.830006,-0.160001 -2.61,-0.48 -0.760005,-0.32 -1.420004,-0.75 -1.98,-1.29 -0.840003,-0.819998 -1.410002,-1.759997 -1.71,-2.82 -0.300002,-1.059995 -0.450001,-2.189994 -0.45,-3.39 -1e-6,-1.199992 0.149998,-2.32999 0.45,-3.39 0.299998,-1.059988 0.869997,-1.999987 1.71,-2.82 0.559996,-0.539986 1.219995,-0.969986 1.98,-1.29 0.779994,-0.319985 1.649993,-0.479985 2.61,-0.48 0.959991,1.5e-5 1.81999,0.160015 2.58,0.48 0.779989,0.320014 1.449988,0.750014 2.01,1.29 0.839986,0.820013 1.409986,1.760012 1.71,2.82 0.299985,1.06001 0.449985,2.190008 0.45,3.39 m -2.61,0 c -1.2e-5,-0.899992 -0.100012,-1.769991 -0.3,-2.61 -0.200012,-0.839989 -0.570011,-1.539989 -1.11,-2.1 -0.320011,-0.319988 -0.71001,-0.579988 -1.17,-0.78 -0.440009,-0.199987 -0.960009,-0.299987 -1.56,-0.3 -0.600008,1.3e-5 -1.130007,0.100013 -1.59,0.3 -0.440006,0.200012 -0.820006,0.460012 -1.14,0.78 -0.540005,0.560011 -0.910004,1.260011 -1.11,2.1 -0.200004,0.840009 -0.300004,1.710008 -0.3,2.61 -4e-6,0.900006 0.1,1.770005 0.3,2.61 0.199996,0.840004 0.569995,1.540003 1.11,2.1 0.319994,0.320002 0.699994,0.580002 1.14,0.78 0.459993,0.200002 0.989992,0.300001 1.59,0.3 0.599991,10e-7 1.119991,-0.1 1.56,-0.3 0.45999,-0.199998 0.849989,-0.459998 1.17,-0.78 0.539989,-0.559997 0.909988,-1.259996 1.11,-2.1 0.199988,-0.839995 0.299988,-1.709994 0.3,-2.61" style="font-size:30px;letter-spacing:-2px;font-family:Akkurat;-inkscape-font-specification:Akkurat"/>
      <path d="m 47.386719,44.860001 c -1.6e-5,0.659997 -0.130016,1.239996 -0.39,1.74 -0.240015,0.519995 -0.540015,0.959995 -0.9,1.32 -0.360014,0.359994 -0.790014,0.649994 -1.29,0.87 -0.480013,0.239993 -0.990012,0.419993 -1.53,0.54 -0.540011,0.139993 -1.090011,0.229993 -1.65,0.27 -0.56001,0.05999 -1.110009,0.08999 -1.65,0.09 -0.500008,-7e-6 -1.020008,-0.03001 -1.56,-0.09 -0.520007,-0.04001 -1.030006,-0.130007 -1.53,-0.27 -0.500005,-0.120007 -0.980005,-0.300007 -1.44,-0.54 -0.460004,-0.220006 -0.870003,-0.510006 -1.23,-0.87 -0.320003,-0.320005 -0.580002,-0.700005 -0.78,-1.14 -0.200002,-0.440004 -0.300002,-0.960004 -0.3,-1.56 -2e-6,-0.800002 0.209998,-1.490002 0.63,-2.07 0.419997,-0.56 0.929997,-0.99 1.53,-1.29 -0.520003,-0.199999 -0.950003,-0.529999 -1.29,-0.99 -0.320002,-0.459998 -0.480002,-0.979998 -0.48,-1.56 -2e-6,-0.679996 0.189998,-1.269996 0.57,-1.77 0.379997,-0.499995 0.859996,-0.889994 1.44,-1.17 -0.560004,-0.499994 -0.990003,-1.099993 -1.29,-1.8 -0.300003,-0.699992 -0.450002,-1.409991 -0.45,-2.13 -2e-6,-0.839989 0.129997,-1.549989 0.39,-2.13 0.259997,-0.579988 0.609997,-1.099987 1.05,-1.56 0.519996,-0.539986 1.139995,-0.959986 1.86,-1.26 0.739994,-0.299985 1.619993,-0.449985 2.64,-0.45 0.719991,1.5e-5 1.35999,0.08001 1.92,0.24 0.579989,0.160015 1.099989,0.380015 1.56,0.66 0.259988,-0.679985 0.659988,-1.199985 1.2,-1.56 0.559986,-0.379984 1.199986,-0.569984 1.92,-0.57 0.119985,1.6e-5 0.239985,0.01002 0.36,0.03 0.139985,1.6e-5 0.269984,0.01002 0.39,0.03 l 0,2.07 c -0.08002,-0.01999 -0.170016,-0.02999 -0.27,-0.03 -0.100015,1.4e-5 -0.200015,1.4e-5 -0.3,0 -0.500015,1.4e-5 -0.920014,0.130014 -1.26,0.39 -0.320014,0.240014 -0.520013,0.570013 -0.6,0.99 0.319986,0.400013 0.559986,0.860012 0.72,1.38 0.179986,0.500011 0.269986,1.09001 0.27,1.77 -1.4e-5,0.720009 -0.130014,1.390008 -0.39,2.01 -0.240014,0.620007 -0.570013,1.160007 -0.99,1.62 -0.500012,0.540006 -1.130012,0.980005 -1.89,1.32 -0.74001,0.320005 -1.620009,0.480004 -2.64,0.48 -0.520008,4e-6 -0.960007,-0.03 -1.32,-0.09 -0.340007,-0.06 -0.750006,-0.169995 -1.23,-0.33 -0.320005,0.100005 -0.620005,0.270005 -0.9,0.51 -0.260005,0.240004 -0.390005,0.560004 -0.39,0.96 -5e-6,0.300003 0.07,0.540003 0.21,0.72 0.159995,0.180002 0.349995,0.320002 0.57,0.42 0.239994,0.100002 0.489994,0.170002 0.75,0.21 0.259994,0.02 0.509993,0.03 0.75,0.03 l 3,0 c 0.899989,2e-6 1.809988,0.110002 2.73,0.33 0.919987,0.220001 1.679986,0.640001 2.28,1.26 0.359985,0.36 0.649985,0.78 0.87,1.26 0.219984,0.499999 0.329984,1.069998 0.33,1.71 m -4.23,-12.42 c -1.2e-5,-0.959989 -0.310011,-1.749988 -0.93,-2.37 -0.60001,-0.639987 -1.440009,-0.959987 -2.52,-0.96 -1.040007,1.3e-5 -1.880006,0.320013 -2.52,0.96 -0.620005,0.620012 -0.930005,1.410011 -0.93,2.37 -5e-6,0.960009 0.299995,1.770008 0.9,2.43 0.619994,0.640007 1.469993,0.960006 2.55,0.96 1.039991,6e-6 1.86999,-0.319993 2.49,-0.96 0.639989,-0.659992 0.959988,-1.469991 0.96,-2.43 m 1.74,12.42 c -1.4e-5,-0.560002 -0.130013,-1.000002 -0.39,-1.32 -0.240013,-0.320001 -0.560013,-0.560001 -0.96,-0.72 -0.380012,-0.16 -0.810011,-0.26 -1.29,-0.3 -0.46001,-0.04 -0.92001,-0.06 -1.38,-0.06 l -3.51,0 c -0.520005,0.16 -0.970005,0.449999 -1.35,0.87 -0.380004,0.439998 -0.570004,0.949998 -0.57,1.53 -4e-6,0.639997 0.209996,1.169996 0.63,1.59 0.239995,0.239996 0.519995,0.429995 0.84,0.57 0.339994,0.139995 0.689994,0.239995 1.05,0.3 0.359993,0.08 0.719993,0.129995 1.08,0.15 0.379992,0.01999 0.739992,0.02999 1.08,0.03 0.319991,-5e-6 0.669991,-0.01 1.05,-0.03 0.37999,-0.02001 0.759989,-0.07001 1.14,-0.15 0.379989,-0.08 0.739988,-0.190005 1.08,-0.33 0.339988,-0.140005 0.629987,-0.330004 0.87,-0.57 0.419987,-0.420004 0.629986,-0.940003 0.63,-1.56" style="font-size:30px;letter-spacing:-2px;font-family:Akkurat;-inkscape-font-specification:Akkurat"/>
    </g>
  </g>
</svg>
