<?xml version="1.0" encoding="utf-8"?>
<!-- Generator: Adobe Illustrator 14.0.0, SVG Export Plug-In  -->
<!DOCTYPE svg PUBLIC "-//W3C//DTD SVG 1.1//EN" "http://www.w3.org/Graphics/SVG/1.1/DTD/svg11.dtd" [
	<!ENTITY ns_flows "http://ns.adobe.com/Flows/1.0/">
]>
<svg version="1.1"
	 xmlns="http://www.w3.org/2000/svg" xmlns:xlink="http://www.w3.org/1999/xlink" xmlns:a="http://ns.adobe.com/AdobeSVGViewerExtensions/3.0/"
	 x="0px" y="0px" width="256px" height="220px" viewBox="-0.75 0.182 256 220" enable-background="new -0.75 0.182 256 220"
	 xml:space="preserve">
<defs>
</defs>
<rect id="_x3C_Slice_x3E__10_" fill="none" width="255" height="220"/>
<path fill="#000" d="M180.947,89.62v-8.59h3.809c0.766,0,1.348,0.077,1.746,0.231s0.717,0.427,0.955,0.817
	s0.357,0.822,0.357,1.295c0,0.609-0.197,1.123-0.592,1.541s-1.004,0.684-1.828,0.797c0.301,0.145,0.529,0.287,0.686,0.428
	c0.332,0.305,0.646,0.686,0.943,1.143l1.494,2.338h-1.43l-1.137-1.787c-0.332-0.516-0.605-0.91-0.82-1.184s-0.407-0.465-0.577-0.574
	s-0.343-0.186-0.519-0.229c-0.129-0.027-0.34-0.041-0.633-0.041h-1.318v3.814H180.947z M182.084,84.821h2.443
	c0.52,0,0.926-0.054,1.219-0.161s0.516-0.279,0.668-0.516s0.229-0.493,0.229-0.771c0-0.406-0.147-0.74-0.442-1.002
	s-0.761-0.393-1.397-0.393h-2.719V84.821z"/>
<path fill="#000" d="M189.039,87.763l1.043-0.164c0.059,0.418,0.222,0.738,0.489,0.961s0.642,0.334,1.122,0.334
	c0.484,0,0.844-0.099,1.078-0.296s0.352-0.429,0.352-0.694c0-0.238-0.104-0.426-0.311-0.563c-0.145-0.094-0.504-0.213-1.078-0.357
	c-0.773-0.195-1.31-0.364-1.608-0.507s-0.525-0.34-0.68-0.592s-0.231-0.53-0.231-0.835c0-0.277,0.063-0.534,0.19-0.771
	s0.3-0.433,0.519-0.589c0.164-0.121,0.388-0.224,0.671-0.308s0.587-0.126,0.911-0.126c0.488,0,0.917,0.07,1.286,0.211
	s0.642,0.331,0.817,0.571s0.297,0.562,0.363,0.964l-1.031,0.141c-0.047-0.32-0.183-0.57-0.407-0.75s-0.542-0.27-0.952-0.27
	c-0.484,0-0.83,0.08-1.037,0.24s-0.311,0.348-0.311,0.563c0,0.137,0.043,0.26,0.129,0.369c0.086,0.113,0.221,0.207,0.404,0.281
	c0.105,0.039,0.416,0.129,0.932,0.27c0.746,0.199,1.267,0.362,1.562,0.489s0.526,0.312,0.694,0.554s0.252,0.543,0.252,0.902
	c0,0.352-0.103,0.683-0.308,0.993s-0.501,0.551-0.888,0.721s-0.824,0.255-1.313,0.255c-0.809,0-1.425-0.168-1.849-0.504
	S189.156,88.423,189.039,87.763z"/>
<path fill="#000" d="M185.875,119.88v-8.59h1.137v7.576h4.23v1.014H185.875z"/>
<path fill="#000" d="M192.039,118.022l1.043-0.164c0.059,0.418,0.222,0.738,0.489,0.961s0.642,0.334,1.122,0.334
	c0.484,0,0.844-0.099,1.078-0.296s0.352-0.429,0.352-0.694c0-0.238-0.104-0.426-0.311-0.563c-0.145-0.094-0.504-0.213-1.078-0.357
	c-0.773-0.195-1.31-0.364-1.608-0.507s-0.525-0.34-0.68-0.592s-0.231-0.53-0.231-0.835c0-0.277,0.063-0.534,0.19-0.771
	s0.3-0.433,0.519-0.589c0.164-0.121,0.388-0.224,0.671-0.308s0.587-0.126,0.911-0.126c0.488,0,0.917,0.07,1.286,0.211
	s0.642,0.331,0.817,0.571s0.297,0.562,0.363,0.964l-1.031,0.141c-0.047-0.32-0.183-0.57-0.407-0.75s-0.542-0.27-0.952-0.27
	c-0.484,0-0.83,0.08-1.037,0.24s-0.311,0.348-0.311,0.563c0,0.137,0.043,0.26,0.129,0.369c0.086,0.113,0.221,0.207,0.404,0.281
	c0.105,0.039,0.416,0.129,0.932,0.27c0.746,0.199,1.267,0.362,1.562,0.489s0.526,0.312,0.694,0.554s0.252,0.543,0.252,0.902
	c0,0.352-0.103,0.683-0.308,0.993s-0.501,0.551-0.888,0.721s-0.824,0.255-1.313,0.255c-0.809,0-1.425-0.168-1.849-0.504
	S192.156,118.683,192.039,118.022z"/>
<line fill="none" stroke="#000" stroke-width="0.5" stroke-miterlimit="10" x1="201.238" y1="129.231" x2="201.238" y2="141.521"/>
<line fill="none" stroke="#000" stroke-width="0.5" stroke-miterlimit="10" x1="201.237" y1="104.127" x2="201.237" y2="57.036"/>
<rect x="197.916" y="76.539" fill="#FFFFFF" stroke="#000" stroke-width="0.5" stroke-miterlimit="10" width="6.646" height="19.76"/>
<path fill="none" stroke="#000" stroke-width="0.5" d="M201.238,111.678c1.588,0,2.876,1.12,2.876,2.501
	s-1.288,2.501-2.876,2.501"/>
<path fill="none" stroke="#000" stroke-width="0.5" d="M201.238,116.68c1.588,0,2.876,1.119,2.876,2.5s-1.288,2.501-2.876,2.501"
	/>
<path fill="none" stroke="#000" stroke-width="0.5" d="M201.238,104.127v2.55c1.588,0,2.876,1.12,2.876,2.501
	s-1.288,2.5-2.876,2.5"/>
<path fill="none" stroke="#000" stroke-width="0.5" d="M201.238,129.231v-2.55c1.588,0,2.876-1.12,2.876-2.501
	s-1.288-2.5-2.876-2.5"/>
</svg>
