<?xml version="1.0" encoding="utf-8"?>
<!-- Generator: Adobe Illustrator 14.0.0, SVG Export Plug-In  -->
<!DOCTYPE svg PUBLIC "-//W3C//DTD SVG 1.1//EN" "http://www.w3.org/Graphics/SVG/1.1/DTD/svg11.dtd" [
	<!ENTITY ns_flows "http://ns.adobe.com/Flows/1.0/">
]>
<svg version="1.1"
	 xmlns="http://www.w3.org/2000/svg" xmlns:xlink="http://www.w3.org/1999/xlink" xmlns:a="http://ns.adobe.com/AdobeSVGViewerExtensions/3.0/"
	 x="0px" y="0px" width="256px" height="220px" viewBox="-0.75 0.182 256 220" enable-background="new -0.75 0.182 256 220"
	 xml:space="preserve">
<defs>
</defs>
<rect id="_x3C_Slice_x3E__10_" fill="none" width="255" height="220"/>
<line fill="none" stroke="#000" stroke-miterlimit="10" x1="223.487" y1="101.683" x2="209.487" y2="101.683"/>
<line fill="none" stroke="#000" stroke-miterlimit="10" x1="223.487" y1="96.013" x2="209.487" y2="96.013"/>
<path fill="#000" d="M164.947,101.851v-8.59h3.809c0.766,0,1.348,0.077,1.746,0.231s0.717,0.427,0.955,0.817
	s0.357,0.822,0.357,1.295c0,0.609-0.197,1.123-0.592,1.541s-1.004,0.684-1.828,0.797c0.301,0.145,0.529,0.287,0.686,0.428
	c0.332,0.305,0.646,0.686,0.943,1.143l1.494,2.338h-1.43l-1.137-1.787c-0.332-0.516-0.605-0.91-0.82-1.184s-0.407-0.465-0.577-0.574
	s-0.343-0.186-0.519-0.229c-0.129-0.027-0.34-0.041-0.633-0.041h-1.318v3.814H164.947z M166.084,97.052h2.443
	c0.52,0,0.926-0.054,1.219-0.161s0.516-0.279,0.668-0.516s0.229-0.493,0.229-0.771c0-0.406-0.147-0.74-0.442-1.002
	s-0.761-0.393-1.397-0.393h-2.719V97.052z"/>
<path fill="#000" d="M173.461,104.235v-8.607h0.961v0.809c0.227-0.316,0.482-0.554,0.768-0.712s0.631-0.237,1.037-0.237
	c0.531,0,1,0.137,1.406,0.41s0.713,0.659,0.92,1.157s0.311,1.044,0.311,1.638c0,0.637-0.114,1.21-0.343,1.72s-0.561,0.9-0.996,1.172
	s-0.894,0.407-1.374,0.407c-0.352,0-0.667-0.074-0.946-0.223s-0.509-0.336-0.688-0.563v3.029H173.461z M174.416,98.774
	c0,0.801,0.162,1.393,0.486,1.775s0.717,0.574,1.178,0.574c0.469,0,0.87-0.198,1.204-0.595s0.501-1.011,0.501-1.843
	c0-0.793-0.163-1.387-0.489-1.781s-0.716-0.592-1.169-0.592c-0.449,0-0.847,0.21-1.192,0.63S174.416,97.974,174.416,98.774z"/>
<path fill="#000" d="M233.371,99.036l1.137,0.287c-0.238,0.934-0.667,1.646-1.286,2.136s-1.376,0.735-2.271,0.735
	c-0.926,0-1.679-0.188-2.259-0.565s-1.021-0.923-1.324-1.638s-0.454-1.482-0.454-2.303c0-0.895,0.171-1.675,0.513-2.341
	s0.828-1.172,1.459-1.518s1.325-0.519,2.083-0.519c0.859,0,1.582,0.219,2.168,0.656s0.994,1.053,1.225,1.846l-1.119,0.264
	c-0.199-0.625-0.488-1.08-0.867-1.365s-0.855-0.428-1.43-0.428c-0.66,0-1.212,0.158-1.655,0.475s-0.755,0.741-0.935,1.274
	s-0.27,1.083-0.27,1.649c0,0.73,0.106,1.368,0.319,1.913s0.544,0.952,0.993,1.222s0.936,0.404,1.459,0.404
	c0.637,0,1.176-0.184,1.617-0.551S233.215,99.759,233.371,99.036z"/>
<path fill="#000" d="M235.773,104.433v-8.607h0.961v0.809c0.227-0.316,0.482-0.554,0.768-0.712s0.631-0.237,1.037-0.237
	c0.531,0,1,0.137,1.406,0.41s0.713,0.659,0.92,1.157s0.311,1.044,0.311,1.638c0,0.637-0.114,1.21-0.343,1.72s-0.561,0.9-0.996,1.172
	s-0.894,0.407-1.374,0.407c-0.352,0-0.667-0.074-0.946-0.223s-0.509-0.336-0.688-0.563v3.029H235.773z M236.729,98.972
	c0,0.801,0.162,1.393,0.486,1.775s0.717,0.574,1.178,0.574c0.469,0,0.87-0.198,1.204-0.595s0.501-1.011,0.501-1.843
	c0-0.793-0.163-1.387-0.489-1.781s-0.716-0.592-1.169-0.592c-0.449,0-0.847,0.21-1.192,0.63S236.729,98.171,236.729,98.972z"/>
<polyline fill="none" stroke="#000" stroke-width="0.5" stroke-miterlimit="10" points="185.987,95.779 185.987,71.471 
	216.487,71.471 216.487,95.779 "/>
<polyline fill="none" stroke="#000" stroke-width="0.5" stroke-miterlimit="10" points="185.987,101.718 185.987,127.09 
	216.487,127.09 216.487,101.718 "/>
<line fill="none" stroke="#000" stroke-width="0.5" stroke-miterlimit="10" x1="201.238" y1="127.09" x2="201.237" y2="141.521"/>
<line fill="none" stroke="#000" stroke-width="0.5" stroke-miterlimit="10" x1="201.238" y1="71.709" x2="201.237" y2="57.039"/>
<rect x="182.665" y="89.302" fill="#FFFFFF" stroke="#000" stroke-width="0.5" stroke-miterlimit="10" width="6.646" height="19.76"/>
</svg>
