<?xml version="1.0" encoding="UTF-8" standalone="no"?>

<!--generated document-->
<!--Copyright (c) 2012 Zurich Instruments AG, www.zhinst.com-->

<svg xmlns="http://www.w3.org/2000/svg" version="1.1" width="64px" height="64px" viewBox="0 0 64 64">
  <g>
    <path style="fill:none;stroke:#fff;stroke-width:3" d="M4,25 h4 m2,0 h8 m2,0 h4"/>
    <path style="fill:none;stroke:#fff;stroke-width:2" d="M4,30 h4 m2,0 h6 m4,0 h4"/>
    <path style="fill:none;stroke:#fff;stroke-width:2" d="M4,34 h4 m2,0 h8 m2,0 h4"/>
    <path style="fill:none;stroke:#fff;stroke-width:2" d="M4,38 h4 m2,0 h7 m3,0 h4"/>
    <path style="fill:none;stroke:#fff;stroke-width:2" d="M4,42 h4 m2,0 h7 m3,0 h4"/>
  </g>
  <g>
    <path style="fill:none;stroke:#fff;stroke-width:2" d="M60,30 v13 h-22 v-17 h8 l3,4 z"/>
    <path style="fill:#fff;" d="M35,37 l-7-7 v14 z"/>
  </g>
</svg>
