<?xml version="1.0" encoding="UTF-8" standalone="no"?>

<!--generated document-->
<!--Copyright (c) 2012 Zurich Instruments AG, www.zhinst.com-->

<svg xmlns="http://www.w3.org/2000/svg" version="1.1" width="64px" height="64px" viewBox="0 0 64 64">
  <g>
    <g style="font-size:10px;font-style:normal;font-variant:normal;font-weight:normal;font-stretch:normal;text-align:start;line-height:125%;letter-spacing:0px;word-spacing:0px;writing-mode:lr-tb;text-anchor:start;fill:#fff;fill-opacity:1;stroke:none;font-family:Akkurat;-inkscape-font-specification:Akkurat">
      <path d="m 8.67,23.800001 0,6.93 9.9,0 0,2.52 -9.9,0 0,9.36 -2.67,0 0,-21.27 13.77,0 0,2.46 -11.1,0" style="font-size:30px;letter-spacing:-2px;font-family:Akkurat;-inkscape-font-specification:Akkurat"/>
      <path d="m 35.717969,36.760001 c -1.8e-5,0.900005 -0.170018,1.680004 -0.51,2.34 -0.340017,0.660002 -0.770017,1.250002 -1.29,1.77 -0.740015,0.720001 -1.650014,1.26 -2.73,1.62 -1.060012,0.339999 -2.160011,0.509999 -3.3,0.51 -2.580007,-10e-7 -4.610005,-0.68 -6.09,-2.04 -0.680003,-0.639998 -1.230003,-1.389997 -1.65,-2.25 -0.420002,-0.879996 -0.630002,-1.829995 -0.63,-2.85 l 2.79,0 c -4e-6,0.640006 0.139995,1.260005 0.42,1.86 0.279995,0.580004 0.639995,1.080003 1.08,1.5 0.479994,0.460003 1.089993,0.800002 1.83,1.02 0.739992,0.200002 1.489991,0.300002 2.25,0.3 0.819989,2e-6 1.559988,-0.09 2.22,-0.27 0.679987,-0.179998 1.259987,-0.499998 1.74,-0.96 0.339986,-0.299997 0.599985,-0.639996 0.78,-1.02 0.199985,-0.399996 0.299985,-0.889995 0.3,-1.47 -1.5e-5,-0.839994 -0.280015,-1.569993 -0.84,-2.19 -0.560014,-0.619992 -1.470013,-1.029991 -2.73,-1.23 -0.580011,-0.09999 -1.14001,-0.179991 -1.68,-0.24 -0.540009,-0.07999 -1.100009,-0.169991 -1.68,-0.27 -0.800007,-0.119991 -1.550007,-0.31999 -2.25,-0.6 -0.680005,-0.27999 -1.280005,-0.649989 -1.8,-1.11 -0.500004,-0.479988 -0.900003,-1.039988 -1.2,-1.68 -0.280003,-0.659987 -0.420002,-1.409986 -0.42,-2.25 -2e-6,-0.799984 0.159997,-1.559983 0.48,-2.28 0.339997,-0.739982 0.799996,-1.379981 1.38,-1.92 1.499994,-1.399979 3.359992,-2.099979 5.58,-2.1 1.039989,2.1e-5 2.039988,0.170021 3,0.51 0.979986,0.34002 1.819985,0.85002 2.52,1.53 1.299983,1.240018 1.979983,2.760016 2.04,4.56 l -2.79,0 c -0.04001,-0.519985 -0.150014,-1.009984 -0.33,-1.47 -0.180014,-0.459983 -0.420014,-0.859983 -0.72,-1.2 -0.400013,-0.459982 -0.920013,-0.819982 -1.56,-1.08 -0.620011,-0.259981 -1.350011,-0.389981 -2.19,-0.39 -0.760009,1.9e-5 -1.470008,0.120019 -2.13,0.36 -0.640007,0.220018 -1.190006,0.590018 -1.65,1.11 -0.280006,0.320017 -0.500006,0.670017 -0.66,1.05 -0.140005,0.360016 -0.210005,0.780016 -0.21,1.26 -5e-6,0.480015 0.08999,0.900014 0.27,1.26 0.179994,0.340013 0.419994,0.630013 0.72,0.87 0.299994,0.240013 0.639993,0.430012 1.02,0.57 0.379992,0.140012 0.769992,0.240012 1.17,0.3 0.599991,0.08001 1.18999,0.170012 1.77,0.27 0.599989,0.08001 1.189989,0.170012 1.77,0.27 1.779986,0.260011 3.209985,0.910011 4.29,1.95 1.079983,1.020009 1.619982,2.380007 1.62,4.08" style="font-size:30px;letter-spacing:-2px;font-family:Akkurat;-inkscape-font-specification:Akkurat"/>
    </g>
  </g>
</svg>
