<?xml version="1.0" encoding="UTF-8" standalone="no"?>

<!--generated document-->
<!--Copyright (c) 2012 Zurich Instruments AG, www.zhinst.com-->

<svg xmlns="http://www.w3.org/2000/svg" version="1.1" width="64px" height="64px" viewBox="0 0 64 64">
  <g>
    <g style="font-size:10px;font-style:normal;font-variant:normal;font-weight:normal;font-stretch:normal;text-align:start;line-height:125%;letter-spacing:0px;word-spacing:0px;writing-mode:lr-tb;text-anchor:start;fill:#fff;fill-opacity:1;stroke:none;font-family:Akkurat;-inkscape-font-specification:Akkurat">
      <path d="m 15.81,42.610001 -0.18,-1.98 c -0.440012,0.760001 -1.090012,1.35 -1.95,1.77 C 12.81999,42.8 11.959991,43 11.1,43.000001 10.159993,43 9.3299937,42.86 8.61,42.580001 c -0.7000049,-0.3 -1.3000043,-0.71 -1.8,-1.23 -0.7200031,-0.739998 -1.2700025,-1.659997 -1.65,-2.76 -0.3600018,-1.099995 -0.5400016,-2.279994 -0.54,-3.54 -1.6e-6,-1.319992 0.1899982,-2.53999 0.57,-3.66 0.3999974,-1.139988 0.9799968,-2.079987 1.74,-2.82 0.4999956,-0.459986 1.089995,-0.829986 1.77,-1.11 0.6999936,-0.279985 1.499993,-0.419985 2.4,-0.42 0.419991,1.5e-5 0.839991,0.05001 1.26,0.15 0.43999,0.100015 0.85999,0.240015 1.26,0.42 0.399989,0.180014 0.759989,0.410014 1.08,0.69 0.339988,0.260014 0.609988,0.560013 0.81,0.9 l 0,-8.25 2.55,0 0,21.66 -2.25,0 m -0.15,-7.59 c -1.3e-5,-0.959992 -0.120013,-1.859991 -0.36,-2.7 -0.240012,-0.859989 -0.680012,-1.569989 -1.32,-2.13 -0.300011,-0.279988 -0.65001,-0.509987 -1.05,-0.69 -0.38001,-0.199987 -0.850009,-0.299987 -1.41,-0.3 -0.840008,1.3e-5 -1.540007,0.170013 -2.1,0.51 -0.5600059,0.340012 -1.0000054,0.790012 -1.32,1.35 -0.3200048,0.560011 -0.5500046,1.19001 -0.69,1.89 -0.1200043,0.680009 -0.1800042,1.370008 -0.18,2.07 -4.2e-6,0.700007 0.059996,1.400006 0.18,2.1 0.1399954,0.680004 0.3699952,1.300004 0.69,1.86 0.3199946,0.560003 0.7599941,1.010002 1.32,1.35 0.559993,0.340002 1.259992,0.510001 2.1,0.51 0.559991,10e-7 1.02999,-0.09 1.41,-0.27 0.39999,-0.199998 0.749989,-0.439998 1.05,-0.72 0.639988,-0.559997 1.079988,-1.259996 1.32,-2.1 0.239987,-0.859995 0.359987,-1.769994 0.36,-2.73" style="font-size:30px;letter-spacing:-2px;font-family:Akkurat;-inkscape-font-specification:Akkurat"/>
      <path d="m 37.411094,36.670001 c -1.9e-5,0.860005 -0.160019,1.620004 -0.48,2.28 -0.300018,0.640003 -0.680018,1.210002 -1.14,1.71 -0.600017,0.640001 -1.380016,1.13 -2.34,1.47 -0.940014,0.32 -1.940013,0.48 -3,0.48 l -8.58,0 0,-21.27 8.49,0 c 0.999987,2.1e-5 1.969986,0.170021 2.91,0.51 0.939984,0.32002 1.699984,0.80002 2.28,1.44 0.419983,0.460018 0.749982,0.980018 0.99,1.56 0.259982,0.560017 0.389982,1.220016 0.39,1.98 -1.8e-5,1.020014 -0.260018,1.970013 -0.78,2.85 -0.520017,0.880012 -1.280016,1.500011 -2.28,1.86 0.539984,0.180011 1.029984,0.45001 1.47,0.81 0.439983,0.34001 0.809982,0.740009 1.11,1.2 0.319982,0.440008 0.559982,0.930008 0.72,1.47 0.159981,0.540007 0.239981,1.090006 0.24,1.65 m -3.21,-9.63 c -1.6e-5,-0.559984 -0.110015,-1.039984 -0.33,-1.44 -0.200015,-0.419983 -0.480015,-0.769983 -0.84,-1.05 -0.340014,-0.279982 -0.750014,-0.489982 -1.23,-0.63 -0.460013,-0.139982 -0.940012,-0.209981 -1.44,-0.21 l -5.88,0 0,6.69 5.97,0 c 1.119987,1.2e-5 2.019986,-0.259988 2.7,-0.78 0.699985,-0.519987 1.049984,-1.379986 1.05,-2.58 m 0.48,9.45 c -1.6e-5,-0.599994 -0.110016,-1.129993 -0.33,-1.59 -0.220016,-0.459992 -0.520015,-0.849992 -0.9,-1.17 -0.380014,-0.319991 -0.830014,-0.559991 -1.35,-0.72 -0.500013,-0.179991 -1.030012,-0.269991 -1.59,-0.27 l -6.03,0 0,7.41 5.97,0 c 0.579988,2e-6 1.129987,-0.07 1.65,-0.21 0.519986,-0.139998 0.969986,-0.359997 1.35,-0.66 0.379985,-0.299997 0.679984,-0.679996 0.9,-1.14 0.219984,-0.459995 0.329984,-1.009995 0.33,-1.65" style="font-size:30px;letter-spacing:-2px;font-family:Akkurat;-inkscape-font-specification:Akkurat"/>
    </g>
  </g>
</svg>
