<?xml version="1.0" encoding="UTF-8" standalone="no"?>

<!--generated document-->
<!--Copyright (c) 2012 Zurich Instruments AG, www.zhinst.com-->

<svg xmlns="http://www.w3.org/2000/svg" version="1.1" width="64px" height="64px" viewBox="0 0 64 64">
  <g>
    <g style="font-size:10px;font-style:normal;font-variant:normal;font-weight:normal;font-stretch:normal;text-align:start;line-height:125%;letter-spacing:0px;word-spacing:0px;writing-mode:lr-tb;text-anchor:start;fill:#fff;fill-opacity:1;stroke:none;font-family:Akkurat;-inkscape-font-specification:Akkurat">
      <path d="m 18.63,42.610001 -1.74,-5.04 -9.24,0 -1.71,5.04 -2.7,0 7.5,-21.27 3.12,0 7.53,21.27 -2.76,0 m -6.39,-18.6 -3.75,11.04 7.53,0 -3.78,-11.04" style="font-size:30px;letter-spacing:-2px;font-family:Akkurat;-inkscape-font-specification:Akkurat"/>
      <path d="m 31.789844,42.610001 -0.21,-2.31 c -0.400012,0.880001 -1.030011,1.55 -1.89,2.01 -0.84001,0.439999 -1.710009,0.659999 -2.61,0.66 -1.740006,-1e-6 -3.040005,-0.49 -3.9,-1.47 -0.860003,-0.979998 -1.290003,-2.349997 -1.29,-4.11 l 0,-9.96 2.55,0 0,9.6 c -5e-6,1.140004 0.239994,2.030003 0.72,2.67 0.479993,0.640002 1.319993,0.960002 2.52,0.96 0.519991,2e-6 0.97999,-0.1 1.38,-0.3 0.41999,-0.219998 0.799989,-0.499998 1.14,-0.84 0.479988,-0.499997 0.809988,-1.129996 0.99,-1.89 0.179988,-0.759995 0.269988,-1.529994 0.27,-2.31 l 0,-7.89 2.55,0 0,15.18 -2.22,0" style="font-size:30px;letter-spacing:-2px;font-family:Akkurat;-inkscape-font-specification:Akkurat"/>
      <path d="m 45.450781,42.400001 c -0.34001,0.1 -0.76001,0.19 -1.26,0.27 -0.480009,0.1 -1.070008,0.149999 -1.77,0.15 -0.820007,-10e-7 -1.500006,-0.12 -2.04,-0.36 -0.540005,-0.24 -0.970004,-0.55 -1.29,-0.93 -0.300004,-0.379999 -0.520004,-0.809998 -0.66,-1.29 -0.120003,-0.499998 -0.180003,-1.009997 -0.18,-1.53 l 0,-9.09 -2.94,0 0,-2.19 2.94,0 0,-3.87 2.55,-0.6 0,4.47 4.5,0 0,2.19 -4.5,0 0,8.79 c -6e-6,0.740003 0.159994,1.270003 0.48,1.59 0.339993,0.320002 0.859993,0.480002 1.56,0.48 0.279992,2e-6 0.569992,-0.01 0.87,-0.03 0.299991,-0.02 0.579991,-0.05 0.84,-0.09 0.29999,-0.04 0.59999,-0.09 0.9,-0.15 l 0,2.19" style="font-size:30px;letter-spacing:-2px;font-family:Akkurat;-inkscape-font-specification:Akkurat"/>
      <path d="m 59.170781,35.020001 c -1.5e-5,1.200006 -0.150015,2.330005 -0.45,3.39 -0.300014,1.060003 -0.870014,2.000002 -1.71,2.82 -0.560012,0.54 -1.230011,0.97 -2.01,1.29 -0.76001,0.319999 -1.620009,0.479999 -2.58,0.48 -0.960007,-10e-7 -1.830006,-0.160001 -2.61,-0.48 -0.760005,-0.32 -1.420004,-0.75 -1.98,-1.29 -0.840003,-0.819998 -1.410002,-1.759997 -1.71,-2.82 -0.300002,-1.059995 -0.450001,-2.189994 -0.45,-3.39 -10e-7,-1.199992 0.149998,-2.32999 0.45,-3.39 0.299998,-1.059988 0.869997,-1.999987 1.71,-2.82 0.559996,-0.539986 1.219995,-0.969986 1.98,-1.29 0.779994,-0.319985 1.649993,-0.479985 2.61,-0.48 0.959991,1.5e-5 1.81999,0.160015 2.58,0.48 0.779989,0.320014 1.449988,0.750014 2.01,1.29 0.839986,0.820013 1.409986,1.760012 1.71,2.82 0.299985,1.06001 0.449985,2.190008 0.45,3.39 m -2.61,0 c -1.2e-5,-0.899992 -0.100012,-1.769991 -0.3,-2.61 -0.200012,-0.839989 -0.570011,-1.539989 -1.11,-2.1 -0.320011,-0.319988 -0.71001,-0.579988 -1.17,-0.78 -0.440009,-0.199987 -0.960009,-0.299987 -1.56,-0.3 -0.600008,1.3e-5 -1.130007,0.100013 -1.59,0.3 -0.440006,0.200012 -0.820006,0.460012 -1.14,0.78 -0.540005,0.560011 -0.910004,1.260011 -1.11,2.1 -0.200004,0.840009 -0.300004,1.710008 -0.3,2.61 -4e-6,0.900006 0.1,1.770005 0.3,2.61 0.199996,0.840004 0.569995,1.540003 1.11,2.1 0.319994,0.320002 0.699994,0.580002 1.14,0.78 0.459993,0.200002 0.989992,0.300001 1.59,0.3 0.599991,10e-7 1.119991,-0.1 1.56,-0.3 0.45999,-0.199998 0.849989,-0.459998 1.17,-0.78 0.539989,-0.559997 0.909988,-1.259996 1.11,-2.1 0.199988,-0.839995 0.299988,-1.709994 0.3,-2.61" style="font-size:30px;letter-spacing:-2px;font-family:Akkurat;-inkscape-font-specification:Akkurat"/>
    </g>
  </g>
</svg>
