<?xml version="1.0" encoding="UTF-8" standalone="no"?>

<!--generated document-->
<!--Copyright (c) 2012 Zurich Instruments AG, www.zhinst.com-->

<svg xmlns="http://www.w3.org/2000/svg" version="1.1" width="64px" height="64px">
  <g>
    <path style="fill:#fff;" d="M19.801,35.975c0,2.264-0.58,4.036-1.742,5.318c-1.182,1.322-2.805,1.983-4.869,1.983c-1.982,0-3.595-0.602-4.837-1.803    c-1.183-1.162-1.823-2.705-1.923-4.628h2.554c0.06,1.262,0.451,2.254,1.172,2.975c0.741,0.741,1.743,1.112,3.005,1.112    c1.322,0,2.334-0.451,3.035-1.353c0.682-0.861,1.021-2.023,1.021-3.485c0-1.503-0.391-2.694-1.172-3.576    c-0.721-0.781-1.684-1.172-2.885-1.172c-1.563,0-2.715,0.611-3.456,1.833H6.85l0.571-11.208h11.538v2.313H9.614l-0.331,6.671    c0.861-1.262,2.324-1.894,4.388-1.894c1.742,0,3.164,0.571,4.266,1.713C19.18,32.058,19.801,33.791,19.801,35.975z"/>
    <path style="fill:#fff;" d="M36.076,26.914c0.33,1.413,0.495,3.241,0.495,5.484c0,2.244-0.165,4.067-0.495,5.469    c-0.331,1.402-0.987,2.604-1.969,3.606c-1.182,1.182-2.685,1.772-4.507,1.772c-1.823,0-3.326-0.591-4.508-1.772    c-0.981-1.002-1.638-2.204-1.968-3.606c-0.331-1.401-0.496-3.225-0.496-5.469c0-2.243,0.165-4.071,0.496-5.484    c0.33-1.412,0.986-2.618,1.968-3.62c1.162-1.162,2.664-1.743,4.508-1.743c1.843,0,3.345,0.581,4.507,1.743    C35.089,24.296,35.745,25.502,36.076,26.914z M33.867,34.607c0.02-0.451,0.03-1.188,0.03-2.209s-0.011-1.758-0.03-2.209    c-0.021-0.45-0.075-1.081-0.165-1.893s-0.261-1.487-0.511-2.028c-0.251-0.541-0.586-1.012-1.007-1.412    c-0.682-0.642-1.543-0.962-2.584-0.962c-1.042,0-1.903,0.32-2.585,0.962c-0.42,0.4-0.756,0.871-1.006,1.412    c-0.251,0.541-0.421,1.217-0.511,2.028c-0.091,0.812-0.146,1.442-0.166,1.893c-0.02,0.451-0.029,1.188-0.029,2.209    s0.01,1.758,0.029,2.209c0.02,0.45,0.075,1.081,0.166,1.893c0.09,0.812,0.26,1.487,0.511,2.028    c0.25,0.541,0.586,1.012,1.006,1.412c0.682,0.642,1.543,0.962,2.585,0.962c1.041,0,1.902-0.32,2.584-0.962    c0.421-0.4,0.756-0.871,1.007-1.412c0.25-0.541,0.421-1.217,0.511-2.028S33.847,35.058,33.867,34.607z"/>
    <path style="fill:#fff;" d="M44.707,40.654c-0.99-0.614-1.746-1.21-2.27-1.788c-0.798-0.88-1.412-1.914-1.843-3.102    c-0.432-1.188-0.646-2.501-0.646-3.941c0-1.797,0.364-3.45,1.094-4.958c0.729-1.509,1.788-2.667,3.177-3.474    c1.39-0.807,2.983-1.211,4.78-1.211c3.081,0,5.447,1.165,7.098,3.494c1.201,1.706,1.802,3.76,1.802,6.163    c0,1.54-0.247,2.904-0.742,4.092s-1.142,2.208-1.939,3.061c-0.486,0.532-1.17,1.087-2.05,1.664l5.007-0.082v2.283h-7.909v-2.435    c0.733-0.367,1.302-0.725,1.706-1.073c0.66-0.559,1.219-1.224,1.678-1.994c0.458-0.771,0.805-1.591,1.038-2.463    c0.234-0.871,0.352-1.778,0.352-2.723c0-1.266-0.228-2.538-0.682-3.817c-0.453-1.279-1.142-2.254-2.063-2.923    c-0.922-0.67-2.038-1.005-3.35-1.005c-1.752,0-3.109,0.551-4.072,1.651c-1.339,1.55-2.008,3.567-2.008,6.052    c0,1.99,0.417,3.698,1.252,5.124c0.834,1.426,1.985,2.47,3.452,3.13v2.476h-7.937v-2.311L44.707,40.654z"/>
  </g>
</svg>
