<?xml version="1.0" encoding="UTF-8" standalone="no"?>

<!--generated document-->
<!--Copyright (c) 2012 Zurich Instruments AG, www.zhinst.com-->

<svg xmlns="http://www.w3.org/2000/svg" version="1.1" width="64px" height="64px">
  <g>
    <path style="fill:#fff;" d="M31.9,41.393h-2.945L27.1,36.016h-9.855l-1.824,5.377h-2.881l8-22.688h3.328L31.9,41.393z M26.172,33.328L22.14,21.553    l-4,11.775H26.172z"/>
    <path style="fill:#fff;" d="M50.436,34.16c-0.084,2.069-0.832,3.818-2.24,5.248c-0.725,0.726-1.621,1.313-2.688,1.76    c-1.066,0.448-2.197,0.672-3.391,0.672c-2.434,0-4.48-0.811-6.145-2.432c-1.131-1.109-1.889-2.416-2.271-3.92    c-0.385-1.504-0.576-3.313-0.576-5.424c0-2.112,0.191-3.92,0.576-5.424c0.383-1.504,1.141-2.811,2.271-3.92    c1.664-1.621,3.711-2.433,6.145-2.433c2.473,0,4.49,0.778,6.047,2.336c1.408,1.43,2.154,3.157,2.24,5.185h-2.943    c-0.021-1.217-0.438-2.272-1.248-3.168c-1.004-1.109-2.369-1.664-4.096-1.664c-1.645,0-3.02,0.576-4.129,1.728    c-0.576,0.598-1.014,1.366-1.312,2.304c-0.299,0.939-0.476,1.756-0.528,2.448c-0.053,0.693-0.08,1.563-0.08,2.608    s0.027,1.914,0.08,2.607s0.229,1.51,0.528,2.448c0.298,0.938,0.735,1.707,1.312,2.304c1.109,1.152,2.484,1.729,4.129,1.729    c1.705,0,3.082-0.576,4.127-1.729c0.789-0.896,1.205-1.984,1.248-3.264H50.436z"/>
  </g>
</svg>
